<?xml version="1.0" encoding="UTF-8" standalone="no"?>
<!DOCTYPE svg PUBLIC "-//W3C//DTD SVG 1.1//EN"
 "http://www.w3.org/Graphics/SVG/1.1/DTD/svg11.dtd">
<!-- Generated by graphviz version 2.26.3 (20100126.1600)
 -->
<!-- Title: controllers_diagram Pages: 1 -->
<svg width="697pt" height="842pt"
 viewBox="0.00 0.00 697.00 842.00" xmlns="http://www.w3.org/2000/svg" xmlns:xlink="http://www.w3.org/1999/xlink">
<g id="graph1" class="graph" transform="scale(1 1) rotate(0) translate(4 838)">
<title>controllers_diagram</title>
<polygon fill="white" stroke="white" points="-4,5 -4,-838 694,-838 694,5 -4,5"/>
<!-- _diagram_info -->
<g id="node1" class="node"><title>_diagram_info</title>
<text text-anchor="start" x="8.78833" y="-92" font-family="Times,serif" font-size="13.00">Controllers diagram</text>
<text text-anchor="start" x="8.78833" y="-76.4" font-family="Times,serif" font-size="13.00">Date: Apr 03 2011 &#45; 14:40</text>
<text text-anchor="start" x="8.78833" y="-60.8" font-family="Times,serif" font-size="13.00">Migration version: 20110211064726</text>
<text text-anchor="start" x="8.78833" y="-45.2" font-family="Times,serif" font-size="13.00">Generated by RailRoady 1.0.2</text>
<text text-anchor="start" x="8.78833" y="-29.6" font-family="Times,serif" font-size="13.00">http://railroady.prestonlee.com</text>
</g>
<!-- Admin::SetupWizardsController -->
<g id="node2" class="node"><title>Admin::SetupWizardsController</title>
<polyline fill="none" stroke="black" points="475.183,-1.7 653.817,-1.7 "/>
<path fill="none" stroke="black" d="M653.817,-1.7C659.817,-1.7 665.817,-7.7 665.817,-13.7"/>
<polyline fill="none" stroke="black" points="665.817,-13.7 665.817,-155.3 "/>
<path fill="none" stroke="black" d="M665.817,-155.3C665.817,-161.3 659.817,-167.3 653.817,-167.3"/>
<polyline fill="none" stroke="black" points="653.817,-167.3 475.183,-167.3 "/>
<path fill="none" stroke="black" d="M475.183,-167.3C469.183,-167.3 463.183,-161.3 463.183,-155.3"/>
<polyline fill="none" stroke="black" points="463.183,-155.3 463.183,-13.7 "/>
<path fill="none" stroke="black" d="M463.183,-13.7C463.183,-7.7 469.183,-1.7 475.183,-1.7"/>
<text text-anchor="middle" x="564.5" y="-149.3" font-family="Times,serif" font-size="14.00">Admin::SetupWizardsController</text>
<polyline fill="none" stroke="black" points="463.183,-142.5 665.817,-142.5 "/>
<text text-anchor="start" x="471.183" y="-124.5" font-family="Times,serif" font-size="14.00">_one_time_conditions_valid_78?</text>
<text text-anchor="start" x="471.183" y="-107.7" font-family="Times,serif" font-size="14.00">create</text>
<text text-anchor="start" x="471.183" y="-90.9" font-family="Times,serif" font-size="14.00">new</text>
<polyline fill="none" stroke="black" points="463.183,-84.1 665.817,-84.1 "/>
<polyline fill="none" stroke="black" points="463.183,-60.1 665.817,-60.1 "/>
<text text-anchor="start" x="471.183" y="-42.1" font-family="Times,serif" font-size="14.00">_layout</text>
<text text-anchor="start" x="471.183" y="-25.3" font-family="Times,serif" font-size="14.00">_run_process_action_callbacks</text>
<text text-anchor="start" x="471.183" y="-8.5" font-family="Times,serif" font-size="14.00">check_not_configured</text>
</g>
<!-- ApplicationController -->
<g id="node3" class="node"><title>ApplicationController</title>
<polyline fill="none" stroke="black" points="233.141,-573.5 421.859,-573.5 "/>
<path fill="none" stroke="black" d="M421.859,-573.5C427.859,-573.5 433.859,-579.5 433.859,-585.5"/>
<polyline fill="none" stroke="black" points="433.859,-585.5 433.859,-761.5 "/>
<path fill="none" stroke="black" d="M433.859,-761.5C433.859,-767.5 427.859,-773.5 421.859,-773.5"/>
<polyline fill="none" stroke="black" points="421.859,-773.5 233.141,-773.5 "/>
<path fill="none" stroke="black" d="M233.141,-773.5C227.141,-773.5 221.141,-767.5 221.141,-761.5"/>
<polyline fill="none" stroke="black" points="221.141,-761.5 221.141,-585.5 "/>
<path fill="none" stroke="black" d="M221.141,-585.5C221.141,-579.5 227.141,-573.5 233.141,-573.5"/>
<text text-anchor="middle" x="327.5" y="-755.5" font-family="Times,serif" font-size="14.00">ApplicationController</text>
<polyline fill="none" stroke="black" points="221.141,-748.7 433.859,-748.7 "/>
<text text-anchor="start" x="229.141" y="-730.7" font-family="Times,serif" font-size="14.00">_one_time_conditions_valid_76?</text>
<polyline fill="none" stroke="black" points="221.141,-723.9 433.859,-723.9 "/>
<text text-anchor="start" x="229.141" y="-705.9" font-family="Times,serif" font-size="14.00">permission_denied</text>
<polyline fill="none" stroke="black" points="221.141,-699.1 433.859,-699.1 "/>
<text text-anchor="start" x="229.141" y="-681.1" font-family="Times,serif" font-size="14.00">_layout</text>
<text text-anchor="start" x="229.141" y="-664.3" font-family="Times,serif" font-size="14.00">_run_process_action_callbacks</text>
<text text-anchor="start" x="229.141" y="-647.5" font-family="Times,serif" font-size="14.00">current_user</text>
<text text-anchor="start" x="229.141" y="-630.7" font-family="Times,serif" font-size="14.00">current_user_session</text>
<text text-anchor="start" x="229.141" y="-613.9" font-family="Times,serif" font-size="14.00">delayed_job_admin_authentication</text>
<text text-anchor="start" x="229.141" y="-597.1" font-family="Times,serif" font-size="14.00">redirect_back_or_default</text>
<text text-anchor="start" x="229.141" y="-580.3" font-family="Times,serif" font-size="14.00">store_location</text>
</g>
<!-- ForgottenPasswordsController -->
<g id="node4" class="node"><title>ForgottenPasswordsController</title>
<polyline fill="none" stroke="black" points="13.0713,-683.6 175.929,-683.6 "/>
<path fill="none" stroke="black" d="M175.929,-683.6C181.929,-683.6 187.929,-689.6 187.929,-695.6"/>
<polyline fill="none" stroke="black" points="187.929,-695.6 187.929,-820.4 "/>
<path fill="none" stroke="black" d="M187.929,-820.4C187.929,-826.4 181.929,-832.4 175.929,-832.4"/>
<polyline fill="none" stroke="black" points="175.929,-832.4 13.0713,-832.4 "/>
<path fill="none" stroke="black" d="M13.0713,-832.4C7.07129,-832.4 1.07129,-826.4 1.07129,-820.4"/>
<polyline fill="none" stroke="black" points="1.07129,-820.4 1.07129,-695.6 "/>
<path fill="none" stroke="black" d="M1.07129,-695.6C1.07129,-689.6 7.07129,-683.6 13.0713,-683.6"/>
<text text-anchor="middle" x="94.5" y="-814.4" font-family="Times,serif" font-size="14.00">ForgottenPasswordsController</text>
<polyline fill="none" stroke="black" points="1.07129,-807.6 187.929,-807.6 "/>
<text text-anchor="start" x="9.07129" y="-789.6" font-family="Times,serif" font-size="14.00">create</text>
<text text-anchor="start" x="9.07129" y="-772.8" font-family="Times,serif" font-size="14.00">edit</text>
<text text-anchor="start" x="9.07129" y="-756" font-family="Times,serif" font-size="14.00">new</text>
<text text-anchor="start" x="9.07129" y="-739.2" font-family="Times,serif" font-size="14.00">update</text>
<polyline fill="none" stroke="black" points="1.07129,-732.4 187.929,-732.4 "/>
<polyline fill="none" stroke="black" points="1.07129,-708.4 187.929,-708.4 "/>
<text text-anchor="start" x="9.07129" y="-690.4" font-family="Times,serif" font-size="14.00">_layout</text>
</g>
<!-- MediaItemsController -->
<g id="node5" class="node"><title>MediaItemsController</title>
<polyline fill="none" stroke="black" points="497.183,-507.6 675.817,-507.6 "/>
<path fill="none" stroke="black" d="M675.817,-507.6C681.817,-507.6 687.817,-513.6 687.817,-519.6"/>
<polyline fill="none" stroke="black" points="687.817,-519.6 687.817,-728.4 "/>
<path fill="none" stroke="black" d="M687.817,-728.4C687.817,-734.4 681.817,-740.4 675.817,-740.4"/>
<polyline fill="none" stroke="black" points="675.817,-740.4 497.183,-740.4 "/>
<path fill="none" stroke="black" d="M497.183,-740.4C491.183,-740.4 485.183,-734.4 485.183,-728.4"/>
<polyline fill="none" stroke="black" points="485.183,-728.4 485.183,-519.6 "/>
<path fill="none" stroke="black" d="M485.183,-519.6C485.183,-513.6 491.183,-507.6 497.183,-507.6"/>
<text text-anchor="middle" x="586.5" y="-722.4" font-family="Times,serif" font-size="14.00">MediaItemsController</text>
<polyline fill="none" stroke="black" points="485.183,-715.6 687.817,-715.6 "/>
<text text-anchor="start" x="493.183" y="-697.6" font-family="Times,serif" font-size="14.00">_one_time_conditions_valid_80?</text>
<text text-anchor="start" x="493.183" y="-680.8" font-family="Times,serif" font-size="14.00">create</text>
<text text-anchor="start" x="493.183" y="-664" font-family="Times,serif" font-size="14.00">destroy</text>
<text text-anchor="start" x="493.183" y="-647.2" font-family="Times,serif" font-size="14.00">edit</text>
<text text-anchor="start" x="493.183" y="-630.4" font-family="Times,serif" font-size="14.00">index</text>
<text text-anchor="start" x="493.183" y="-613.6" font-family="Times,serif" font-size="14.00">new</text>
<text text-anchor="start" x="493.183" y="-596.8" font-family="Times,serif" font-size="14.00">show</text>
<text text-anchor="start" x="493.183" y="-580" font-family="Times,serif" font-size="14.00">update</text>
<polyline fill="none" stroke="black" points="485.183,-573.2 687.817,-573.2 "/>
<polyline fill="none" stroke="black" points="485.183,-549.2 687.817,-549.2 "/>
<text text-anchor="start" x="493.183" y="-531.2" font-family="Times,serif" font-size="14.00">_layout</text>
<text text-anchor="start" x="493.183" y="-514.4" font-family="Times,serif" font-size="14.00">_run_process_action_callbacks</text>
</g>
<!-- StaticController -->
<g id="node6" class="node"><title>StaticController</title>
<polyline fill="none" stroke="black" points="78.7861,-243.3 160.214,-243.3 "/>
<path fill="none" stroke="black" d="M160.214,-243.3C166.214,-243.3 172.214,-249.3 172.214,-255.3"/>
<polyline fill="none" stroke="black" points="172.214,-255.3 172.214,-329.7 "/>
<path fill="none" stroke="black" d="M172.214,-329.7C172.214,-335.7 166.214,-341.7 160.214,-341.7"/>
<polyline fill="none" stroke="black" points="160.214,-341.7 78.7861,-341.7 "/>
<path fill="none" stroke="black" d="M78.7861,-341.7C72.7861,-341.7 66.7861,-335.7 66.7861,-329.7"/>
<polyline fill="none" stroke="black" points="66.7861,-329.7 66.7861,-255.3 "/>
<path fill="none" stroke="black" d="M66.7861,-255.3C66.7861,-249.3 72.7861,-243.3 78.7861,-243.3"/>
<text text-anchor="middle" x="119.5" y="-323.7" font-family="Times,serif" font-size="14.00">StaticController</text>
<polyline fill="none" stroke="black" points="66.7861,-316.9 172.214,-316.9 "/>
<text text-anchor="start" x="74.7861" y="-298.9" font-family="Times,serif" font-size="14.00">home</text>
<polyline fill="none" stroke="black" points="66.7861,-292.1 172.214,-292.1 "/>
<polyline fill="none" stroke="black" points="66.7861,-268.1 172.214,-268.1 "/>
<text text-anchor="start" x="74.7861" y="-250.1" font-family="Times,serif" font-size="14.00">_layout</text>
</g>
<!-- TranscriptPhrasesController -->
<g id="node7" class="node"><title>TranscriptPhrasesController</title>
<polyline fill="none" stroke="black" points="12.8184,-551.3 162.182,-551.3 "/>
<path fill="none" stroke="black" d="M162.182,-551.3C168.182,-551.3 174.182,-557.3 174.182,-563.3"/>
<polyline fill="none" stroke="black" points="174.182,-563.3 174.182,-637.7 "/>
<path fill="none" stroke="black" d="M174.182,-637.7C174.182,-643.7 168.182,-649.7 162.182,-649.7"/>
<polyline fill="none" stroke="black" points="162.182,-649.7 12.8184,-649.7 "/>
<path fill="none" stroke="black" d="M12.8184,-649.7C6.81836,-649.7 0.818359,-643.7 0.818359,-637.7"/>
<polyline fill="none" stroke="black" points="0.818359,-637.7 0.818359,-563.3 "/>
<path fill="none" stroke="black" d="M0.818359,-563.3C0.818359,-557.3 6.81836,-551.3 12.8184,-551.3"/>
<text text-anchor="middle" x="87.5" y="-631.7" font-family="Times,serif" font-size="14.00">TranscriptPhrasesController</text>
<polyline fill="none" stroke="black" points="0.818359,-624.9 174.182,-624.9 "/>
<text text-anchor="start" x="8.81836" y="-606.9" font-family="Times,serif" font-size="14.00">index</text>
<polyline fill="none" stroke="black" points="0.818359,-600.1 174.182,-600.1 "/>
<polyline fill="none" stroke="black" points="0.818359,-576.1 174.182,-576.1 "/>
<text text-anchor="start" x="8.81836" y="-558.1" font-family="Times,serif" font-size="14.00">_layout</text>
</g>
<!-- TranscriptsController -->
<g id="node8" class="node"><title>TranscriptsController</title>
<polyline fill="none" stroke="black" points="233.183,-155.4 411.817,-155.4 "/>
<path fill="none" stroke="black" d="M411.817,-155.4C417.817,-155.4 423.817,-161.4 423.817,-167.4"/>
<polyline fill="none" stroke="black" points="423.817,-167.4 423.817,-510.6 "/>
<path fill="none" stroke="black" d="M423.817,-510.6C423.817,-516.6 417.817,-522.6 411.817,-522.6"/>
<polyline fill="none" stroke="black" points="411.817,-522.6 233.183,-522.6 "/>
<path fill="none" stroke="black" d="M233.183,-522.6C227.183,-522.6 221.183,-516.6 221.183,-510.6"/>
<polyline fill="none" stroke="black" points="221.183,-510.6 221.183,-167.4 "/>
<path fill="none" stroke="black" d="M221.183,-167.4C221.183,-161.4 227.183,-155.4 233.183,-155.4"/>
<text text-anchor="middle" x="322.5" y="-504.6" font-family="Times,serif" font-size="14.00">TranscriptsController</text>
<polyline fill="none" stroke="black" points="221.183,-497.8 423.817,-497.8 "/>
<text text-anchor="start" x="229.183" y="-479.8" font-family="Times,serif" font-size="14.00">_one_time_conditions_valid_82?</text>
<text text-anchor="start" x="229.183" y="-463" font-family="Times,serif" font-size="14.00">_one_time_conditions_valid_84?</text>
<text text-anchor="start" x="229.183" y="-446.2" font-family="Times,serif" font-size="14.00">_one_time_conditions_valid_88?</text>
<text text-anchor="start" x="229.183" y="-429.4" font-family="Times,serif" font-size="14.00">_one_time_conditions_valid_90?</text>
<text text-anchor="start" x="229.183" y="-412.6" font-family="Times,serif" font-size="14.00">_one_time_conditions_valid_92?</text>
<text text-anchor="start" x="229.183" y="-395.8" font-family="Times,serif" font-size="14.00">create</text>
<text text-anchor="start" x="229.183" y="-379" font-family="Times,serif" font-size="14.00">create_attach_media_item</text>
<text text-anchor="start" x="229.183" y="-362.2" font-family="Times,serif" font-size="14.00">destroy</text>
<text text-anchor="start" x="229.183" y="-345.4" font-family="Times,serif" font-size="14.00">edit</text>
<text text-anchor="start" x="229.183" y="-328.6" font-family="Times,serif" font-size="14.00">index</text>
<text text-anchor="start" x="229.183" y="-311.8" font-family="Times,serif" font-size="14.00">new</text>
<text text-anchor="start" x="229.183" y="-295" font-family="Times,serif" font-size="14.00">new_attach_media_item</text>
<text text-anchor="start" x="229.183" y="-278.2" font-family="Times,serif" font-size="14.00">remove_media_item</text>
<text text-anchor="start" x="229.183" y="-261.4" font-family="Times,serif" font-size="14.00">show</text>
<text text-anchor="start" x="229.183" y="-244.6" font-family="Times,serif" font-size="14.00">update</text>
<polyline fill="none" stroke="black" points="221.183,-237.8 423.817,-237.8 "/>
<polyline fill="none" stroke="black" points="221.183,-213.8 423.817,-213.8 "/>
<text text-anchor="start" x="229.183" y="-195.8" font-family="Times,serif" font-size="14.00">_layout</text>
<text text-anchor="start" x="229.183" y="-179" font-family="Times,serif" font-size="14.00">_run_process_action_callbacks</text>
<text text-anchor="start" x="229.183" y="-162.2" font-family="Times,serif" font-size="14.00">terms_agreement</text>
</g>
<!-- UserSessionsController -->
<g id="node9" class="node"><title>UserSessionsController</title>
<polyline fill="none" stroke="black" points="34.8931,-375.5 159.107,-375.5 "/>
<path fill="none" stroke="black" d="M159.107,-375.5C165.107,-375.5 171.107,-381.5 171.107,-387.5"/>
<polyline fill="none" stroke="black" points="171.107,-387.5 171.107,-495.5 "/>
<path fill="none" stroke="black" d="M171.107,-495.5C171.107,-501.5 165.107,-507.5 159.107,-507.5"/>
<polyline fill="none" stroke="black" points="159.107,-507.5 34.8931,-507.5 "/>
<path fill="none" stroke="black" d="M34.8931,-507.5C28.8931,-507.5 22.8931,-501.5 22.8931,-495.5"/>
<polyline fill="none" stroke="black" points="22.8931,-495.5 22.8931,-387.5 "/>
<path fill="none" stroke="black" d="M22.8931,-387.5C22.8931,-381.5 28.8931,-375.5 34.8931,-375.5"/>
<text text-anchor="middle" x="97" y="-489.5" font-family="Times,serif" font-size="14.00">UserSessionsController</text>
<polyline fill="none" stroke="black" points="22.8931,-482.7 171.107,-482.7 "/>
<text text-anchor="start" x="30.8931" y="-464.7" font-family="Times,serif" font-size="14.00">create</text>
<text text-anchor="start" x="30.8931" y="-447.9" font-family="Times,serif" font-size="14.00">destroy</text>
<text text-anchor="start" x="30.8931" y="-431.1" font-family="Times,serif" font-size="14.00">new</text>
<polyline fill="none" stroke="black" points="22.8931,-424.3 171.107,-424.3 "/>
<polyline fill="none" stroke="black" points="22.8931,-400.3 171.107,-400.3 "/>
<text text-anchor="start" x="30.8931" y="-382.3" font-family="Times,serif" font-size="14.00">_layout</text>
</g>
<!-- UsersController -->
<g id="node10" class="node"><title>UsersController</title>
<polyline fill="none" stroke="black" points="475.183,-221.7 653.817,-221.7 "/>
<path fill="none" stroke="black" d="M653.817,-221.7C659.817,-221.7 665.817,-227.7 665.817,-233.7"/>
<polyline fill="none" stroke="black" points="665.817,-233.7 665.817,-459.3 "/>
<path fill="none" stroke="black" d="M665.817,-459.3C665.817,-465.3 659.817,-471.3 653.817,-471.3"/>
<polyline fill="none" stroke="black" points="653.817,-471.3 475.183,-471.3 "/>
<path fill="none" stroke="black" d="M475.183,-471.3C469.183,-471.3 463.183,-465.3 463.183,-459.3"/>
<polyline fill="none" stroke="black" points="463.183,-459.3 463.183,-233.7 "/>
<path fill="none" stroke="black" d="M463.183,-233.7C463.183,-227.7 469.183,-221.7 475.183,-221.7"/>
<text text-anchor="middle" x="564.5" y="-453.3" font-family="Times,serif" font-size="14.00">UsersController</text>
<polyline fill="none" stroke="black" points="463.183,-446.5 665.817,-446.5 "/>
<text text-anchor="start" x="471.183" y="-428.5" font-family="Times,serif" font-size="14.00">_one_time_conditions_valid_94?</text>
<text text-anchor="start" x="471.183" y="-411.7" font-family="Times,serif" font-size="14.00">agree_to_terms</text>
<text text-anchor="start" x="471.183" y="-394.9" font-family="Times,serif" font-size="14.00">confirm</text>
<text text-anchor="start" x="471.183" y="-378.1" font-family="Times,serif" font-size="14.00">create</text>
<text text-anchor="start" x="471.183" y="-361.3" font-family="Times,serif" font-size="14.00">edit</text>
<text text-anchor="start" x="471.183" y="-344.5" font-family="Times,serif" font-size="14.00">new</text>
<text text-anchor="start" x="471.183" y="-327.7" font-family="Times,serif" font-size="14.00">show</text>
<text text-anchor="start" x="471.183" y="-310.9" font-family="Times,serif" font-size="14.00">show_terms</text>
<text text-anchor="start" x="471.183" y="-294.1" font-family="Times,serif" font-size="14.00">update</text>
<polyline fill="none" stroke="black" points="463.183,-287.3 665.817,-287.3 "/>
<polyline fill="none" stroke="black" points="463.183,-263.3 665.817,-263.3 "/>
<text text-anchor="start" x="471.183" y="-245.3" font-family="Times,serif" font-size="14.00">_layout</text>
<text text-anchor="start" x="471.183" y="-228.5" font-family="Times,serif" font-size="14.00">_run_process_action_callbacks</text>
</g>
</g>
</svg>
