<?xml version="1.0" encoding="UTF-8" standalone="no"?>
<!DOCTYPE svg PUBLIC "-//W3C//DTD SVG 1.0//EN"
 "http://www.w3.org/TR/2001/REC-SVG-20010904/DTD/svg10.dtd" [
 <!ATTLIST svg xmlns:xlink CDATA #FIXED "http://www.w3.org/1999/xlink">
]>
<!-- Generated by Graphviz version 2.20.2 (Tue Mar &#160;2 19:03:41 UTC 2010)
     For user: (johnf) John Ferlito,,, -->
<!-- Title: controllers_diagram Pages: 1 -->
<svg width="882pt" height="832pt"
 viewBox="0.00 0.00 882.00 832.00" xmlns="http://www.w3.org/2000/svg" xmlns:xlink="http://www.w3.org/1999/xlink">
<g id="graph0" class="graph" transform="scale(1 1) rotate(0) translate(4 828)">
<title>controllers_diagram</title>
<polygon style="fill:white;stroke:white;" points="-4,4 -4,-828 878,-828 878,4 -4,4"/>
<!-- _diagram_info -->
<g id="node1" class="node"><title>_diagram_info</title>
<text text-anchor="start" x="32.5" y="-125.8" style="font-family:Times New Roman;font-size:13.00;">Controllers diagram</text>
<text text-anchor="start" x="32.5" y="-108.8" style="font-family:Times New Roman;font-size:13.00;">Date: Feb 10 2011 &#45; 12:20</text>
<text text-anchor="start" x="32.5" y="-91.8" style="font-family:Times New Roman;font-size:13.00;">Migration version: 20110206052402</text>
<text text-anchor="start" x="32.5" y="-74.8" style="font-family:Times New Roman;font-size:13.00;">Generated by RailRoady 1.0.1</text>
<text text-anchor="start" x="32.5" y="-57.8" style="font-family:Times New Roman;font-size:13.00;">http://railroady.prestonlee.com</text>
</g>
<!-- ApplicationController -->
<g id="node2" class="node"><title>ApplicationController</title>
<polyline style="fill:none;stroke:black;" points="205,-528 418,-528 "/>
<path style="fill:none;stroke:black;" d="M418,-528C424,-528 430,-534 430,-540"/>
<polyline style="fill:none;stroke:black;" points="430,-540 430,-701 "/>
<path style="fill:none;stroke:black;" d="M430,-701C430,-707 424,-713 418,-713"/>
<polyline style="fill:none;stroke:black;" points="418,-713 205,-713 "/>
<path style="fill:none;stroke:black;" d="M205,-713C199,-713 193,-707 193,-701"/>
<polyline style="fill:none;stroke:black;" points="193,-701 193,-540 "/>
<path style="fill:none;stroke:black;" d="M193,-540C193,-534 199,-528 205,-528"/>
<text text-anchor="middle" x="311" y="-695.9" style="font-family:Times New Roman;font-size:14.00;">ApplicationController</text>
<polyline style="fill:none;stroke:black;" points="193,-688 430,-688 "/>
<text text-anchor="start" x="200.5" y="-670.9" style="font-family:Times New Roman;font-size:14.00;">_one_time_conditions_valid_76?</text>
<polyline style="fill:none;stroke:black;" points="193,-663 430,-663 "/>
<text text-anchor="start" x="200.5" y="-645.9" style="font-family:Times New Roman;font-size:14.00;">permission_denied</text>
<polyline style="fill:none;stroke:black;" points="193,-638 430,-638 "/>
<text text-anchor="start" x="200.5" y="-621.4" style="font-family:Times New Roman;font-size:14.00;">_layout</text>
<text text-anchor="start" x="200.5" y="-604.4" style="font-family:Times New Roman;font-size:14.00;">_run_process_action_callbacks</text>
<text text-anchor="start" x="200.5" y="-587.4" style="font-family:Times New Roman;font-size:14.00;">current_user</text>
<text text-anchor="start" x="200.5" y="-570.4" style="font-family:Times New Roman;font-size:14.00;">current_user_session</text>
<text text-anchor="start" x="200.5" y="-553.4" style="font-family:Times New Roman;font-size:14.00;">redirect_back_or_default</text>
<text text-anchor="start" x="200.5" y="-536.4" style="font-family:Times New Roman;font-size:14.00;">store_location</text>
</g>
<!-- Admin::SetupWizardsController -->
<g id="node3" class="node"><title>Admin::SetupWizardsController</title>
<polyline style="fill:none;stroke:black;" points="469,-0 682,-0 "/>
<path style="fill:none;stroke:black;" d="M682,-0C688,-0 694,-6 694,-12"/>
<polyline style="fill:none;stroke:black;" points="694,-12 694,-155 "/>
<path style="fill:none;stroke:black;" d="M694,-155C694,-161 688,-167 682,-167"/>
<polyline style="fill:none;stroke:black;" points="682,-167 469,-167 "/>
<path style="fill:none;stroke:black;" d="M469,-167C463,-167 457,-161 457,-155"/>
<polyline style="fill:none;stroke:black;" points="457,-155 457,-12 "/>
<path style="fill:none;stroke:black;" d="M457,-12C457,-6 463,-0 469,-0"/>
<text text-anchor="middle" x="575" y="-149.9" style="font-family:Times New Roman;font-size:14.00;">Admin::SetupWizardsController</text>
<polyline style="fill:none;stroke:black;" points="457,-142 694,-142 "/>
<text text-anchor="start" x="464.5" y="-124.9" style="font-family:Times New Roman;font-size:14.00;">_one_time_conditions_valid_78?</text>
<text text-anchor="start" x="464.5" y="-107.9" style="font-family:Times New Roman;font-size:14.00;">create</text>
<text text-anchor="start" x="464.5" y="-90.9" style="font-family:Times New Roman;font-size:14.00;">new</text>
<polyline style="fill:none;stroke:black;" points="457,-83 694,-83 "/>
<polyline style="fill:none;stroke:black;" points="457,-59 694,-59 "/>
<text text-anchor="start" x="464.5" y="-41.9" style="font-family:Times New Roman;font-size:14.00;">_layout</text>
<text text-anchor="start" x="464.5" y="-24.9" style="font-family:Times New Roman;font-size:14.00;">_run_process_action_callbacks</text>
<text text-anchor="start" x="464.5" y="-7.9" style="font-family:Times New Roman;font-size:14.00;">check_not_configured</text>
</g>
<!-- UsersController -->
<g id="node4" class="node"><title>UsersController</title>
<polyline style="fill:none;stroke:black;" points="469,-193 682,-193 "/>
<path style="fill:none;stroke:black;" d="M682,-193C688,-193 694,-199 694,-205"/>
<polyline style="fill:none;stroke:black;" points="694,-205 694,-433 "/>
<path style="fill:none;stroke:black;" d="M694,-433C694,-439 688,-445 682,-445"/>
<polyline style="fill:none;stroke:black;" points="682,-445 469,-445 "/>
<path style="fill:none;stroke:black;" d="M469,-445C463,-445 457,-439 457,-433"/>
<polyline style="fill:none;stroke:black;" points="457,-433 457,-205 "/>
<path style="fill:none;stroke:black;" d="M457,-205C457,-199 463,-193 469,-193"/>
<text text-anchor="middle" x="575" y="-427.9" style="font-family:Times New Roman;font-size:14.00;">UsersController</text>
<polyline style="fill:none;stroke:black;" points="457,-420 694,-420 "/>
<text text-anchor="start" x="464.5" y="-402.9" style="font-family:Times New Roman;font-size:14.00;">_one_time_conditions_valid_80?</text>
<text text-anchor="start" x="464.5" y="-385.9" style="font-family:Times New Roman;font-size:14.00;">agree_to_terms</text>
<text text-anchor="start" x="464.5" y="-368.9" style="font-family:Times New Roman;font-size:14.00;">confirm</text>
<text text-anchor="start" x="464.5" y="-351.9" style="font-family:Times New Roman;font-size:14.00;">create</text>
<text text-anchor="start" x="464.5" y="-334.9" style="font-family:Times New Roman;font-size:14.00;">edit</text>
<text text-anchor="start" x="464.5" y="-317.9" style="font-family:Times New Roman;font-size:14.00;">new</text>
<text text-anchor="start" x="464.5" y="-300.9" style="font-family:Times New Roman;font-size:14.00;">show</text>
<text text-anchor="start" x="464.5" y="-283.9" style="font-family:Times New Roman;font-size:14.00;">show_terms</text>
<text text-anchor="start" x="464.5" y="-266.9" style="font-family:Times New Roman;font-size:14.00;">update</text>
<polyline style="fill:none;stroke:black;" points="457,-259 694,-259 "/>
<polyline style="fill:none;stroke:black;" points="457,-235 694,-235 "/>
<text text-anchor="start" x="464.5" y="-218.4" style="font-family:Times New Roman;font-size:14.00;">_layout</text>
<text text-anchor="start" x="464.5" y="-201.4" style="font-family:Times New Roman;font-size:14.00;">_run_process_action_callbacks</text>
</g>
<!-- StaticController -->
<g id="node5" class="node"><title>StaticController</title>
<polyline style="fill:none;stroke:black;" points="61,-528 162,-528 "/>
<path style="fill:none;stroke:black;" d="M162,-528C168,-528 174,-534 174,-540"/>
<polyline style="fill:none;stroke:black;" points="174,-540 174,-615 "/>
<path style="fill:none;stroke:black;" d="M174,-615C174,-621 168,-627 162,-627"/>
<polyline style="fill:none;stroke:black;" points="162,-627 61,-627 "/>
<path style="fill:none;stroke:black;" d="M61,-627C55,-627 49,-621 49,-615"/>
<polyline style="fill:none;stroke:black;" points="49,-615 49,-540 "/>
<path style="fill:none;stroke:black;" d="M49,-540C49,-534 55,-528 61,-528"/>
<text text-anchor="middle" x="111" y="-609.9" style="font-family:Times New Roman;font-size:14.00;">StaticController</text>
<polyline style="fill:none;stroke:black;" points="49,-602 174,-602 "/>
<text text-anchor="start" x="56.5" y="-584.9" style="font-family:Times New Roman;font-size:14.00;">home</text>
<polyline style="fill:none;stroke:black;" points="49,-577 174,-577 "/>
<polyline style="fill:none;stroke:black;" points="49,-553 174,-553 "/>
<text text-anchor="start" x="56.5" y="-535.9" style="font-family:Times New Roman;font-size:14.00;">_layout</text>
</g>
<!-- UserSessionsController -->
<g id="node6" class="node"><title>UserSessionsController</title>
<polyline style="fill:none;stroke:black;" points="13,-648 164,-648 "/>
<path style="fill:none;stroke:black;" d="M164,-648C170,-648 176,-654 176,-660"/>
<polyline style="fill:none;stroke:black;" points="176,-660 176,-769 "/>
<path style="fill:none;stroke:black;" d="M176,-769C176,-775 170,-781 164,-781"/>
<polyline style="fill:none;stroke:black;" points="164,-781 13,-781 "/>
<path style="fill:none;stroke:black;" d="M13,-781C7,-781 1,-775 1,-769"/>
<polyline style="fill:none;stroke:black;" points="1,-769 1,-660 "/>
<path style="fill:none;stroke:black;" d="M1,-660C1,-654 7,-648 13,-648"/>
<text text-anchor="middle" x="88" y="-763.9" style="font-family:Times New Roman;font-size:14.00;">UserSessionsController</text>
<polyline style="fill:none;stroke:black;" points="1,-756 176,-756 "/>
<text text-anchor="start" x="8.5" y="-738.9" style="font-family:Times New Roman;font-size:14.00;">create</text>
<text text-anchor="start" x="8.5" y="-721.9" style="font-family:Times New Roman;font-size:14.00;">destroy</text>
<text text-anchor="start" x="8.5" y="-704.9" style="font-family:Times New Roman;font-size:14.00;">new</text>
<polyline style="fill:none;stroke:black;" points="1,-697 176,-697 "/>
<polyline style="fill:none;stroke:black;" points="1,-673 176,-673 "/>
<text text-anchor="start" x="8.5" y="-655.9" style="font-family:Times New Roman;font-size:14.00;">_layout</text>
</g>
<!-- ForgottenPasswordsController -->
<g id="node7" class="node"><title>ForgottenPasswordsController</title>
<polyline style="fill:none;stroke:black;" points="661,-673 862,-673 "/>
<path style="fill:none;stroke:black;" d="M862,-673C868,-673 874,-679 874,-685"/>
<polyline style="fill:none;stroke:black;" points="874,-685 874,-811 "/>
<path style="fill:none;stroke:black;" d="M874,-811C874,-817 868,-823 862,-823"/>
<polyline style="fill:none;stroke:black;" points="862,-823 661,-823 "/>
<path style="fill:none;stroke:black;" d="M661,-823C655,-823 649,-817 649,-811"/>
<polyline style="fill:none;stroke:black;" points="649,-811 649,-685 "/>
<path style="fill:none;stroke:black;" d="M649,-685C649,-679 655,-673 661,-673"/>
<text text-anchor="middle" x="761" y="-805.9" style="font-family:Times New Roman;font-size:14.00;">ForgottenPasswordsController</text>
<polyline style="fill:none;stroke:black;" points="649,-798 874,-798 "/>
<text text-anchor="start" x="656.5" y="-781.4" style="font-family:Times New Roman;font-size:14.00;">create</text>
<text text-anchor="start" x="656.5" y="-764.4" style="font-family:Times New Roman;font-size:14.00;">edit</text>
<text text-anchor="start" x="656.5" y="-747.4" style="font-family:Times New Roman;font-size:14.00;">new</text>
<text text-anchor="start" x="656.5" y="-730.4" style="font-family:Times New Roman;font-size:14.00;">update</text>
<polyline style="fill:none;stroke:black;" points="649,-722 874,-722 "/>
<polyline style="fill:none;stroke:black;" points="649,-698 874,-698 "/>
<text text-anchor="start" x="656.5" y="-680.9" style="font-family:Times New Roman;font-size:14.00;">_layout</text>
</g>
<!-- MediaItemsController -->
<g id="node8" class="node"><title>MediaItemsController</title>
<polyline style="fill:none;stroke:black;" points="469,-456 682,-456 "/>
<path style="fill:none;stroke:black;" d="M682,-456C688,-456 694,-462 694,-468"/>
<polyline style="fill:none;stroke:black;" points="694,-468 694,-645 "/>
<path style="fill:none;stroke:black;" d="M694,-645C694,-651 688,-657 682,-657"/>
<polyline style="fill:none;stroke:black;" points="682,-657 469,-657 "/>
<path style="fill:none;stroke:black;" d="M469,-657C463,-657 457,-651 457,-645"/>
<polyline style="fill:none;stroke:black;" points="457,-645 457,-468 "/>
<path style="fill:none;stroke:black;" d="M457,-468C457,-462 463,-456 469,-456"/>
<text text-anchor="middle" x="575" y="-639.9" style="font-family:Times New Roman;font-size:14.00;">MediaItemsController</text>
<polyline style="fill:none;stroke:black;" points="457,-632 694,-632 "/>
<text text-anchor="start" x="464.5" y="-615.4" style="font-family:Times New Roman;font-size:14.00;">_one_time_conditions_valid_82?</text>
<text text-anchor="start" x="464.5" y="-598.4" style="font-family:Times New Roman;font-size:14.00;">create</text>
<text text-anchor="start" x="464.5" y="-581.4" style="font-family:Times New Roman;font-size:14.00;">destroy</text>
<text text-anchor="start" x="464.5" y="-564.4" style="font-family:Times New Roman;font-size:14.00;">index</text>
<text text-anchor="start" x="464.5" y="-547.4" style="font-family:Times New Roman;font-size:14.00;">new</text>
<text text-anchor="start" x="464.5" y="-530.4" style="font-family:Times New Roman;font-size:14.00;">show</text>
<polyline style="fill:none;stroke:black;" points="457,-522 694,-522 "/>
<polyline style="fill:none;stroke:black;" points="457,-498 694,-498 "/>
<text text-anchor="start" x="464.5" y="-481.4" style="font-family:Times New Roman;font-size:14.00;">_layout</text>
<text text-anchor="start" x="464.5" y="-464.4" style="font-family:Times New Roman;font-size:14.00;">_run_process_action_callbacks</text>
</g>
<!-- TranscriptsController -->
<g id="node9" class="node"><title>TranscriptsController</title>
<polyline style="fill:none;stroke:black;" points="205,-168 418,-168 "/>
<path style="fill:none;stroke:black;" d="M418,-168C424,-168 430,-174 430,-180"/>
<polyline style="fill:none;stroke:black;" points="430,-180 430,-493 "/>
<path style="fill:none;stroke:black;" d="M430,-493C430,-499 424,-505 418,-505"/>
<polyline style="fill:none;stroke:black;" points="418,-505 205,-505 "/>
<path style="fill:none;stroke:black;" d="M205,-505C199,-505 193,-499 193,-493"/>
<polyline style="fill:none;stroke:black;" points="193,-493 193,-180 "/>
<path style="fill:none;stroke:black;" d="M193,-180C193,-174 199,-168 205,-168"/>
<text text-anchor="middle" x="311" y="-487.9" style="font-family:Times New Roman;font-size:14.00;">TranscriptsController</text>
<polyline style="fill:none;stroke:black;" points="193,-480 430,-480 "/>
<text text-anchor="start" x="200.5" y="-462.9" style="font-family:Times New Roman;font-size:14.00;">_one_time_conditions_valid_84?</text>
<text text-anchor="start" x="200.5" y="-445.9" style="font-family:Times New Roman;font-size:14.00;">_one_time_conditions_valid_86?</text>
<text text-anchor="start" x="200.5" y="-428.9" style="font-family:Times New Roman;font-size:14.00;">_one_time_conditions_valid_90?</text>
<text text-anchor="start" x="200.5" y="-411.9" style="font-family:Times New Roman;font-size:14.00;">_one_time_conditions_valid_92?</text>
<text text-anchor="start" x="200.5" y="-394.9" style="font-family:Times New Roman;font-size:14.00;">create</text>
<text text-anchor="start" x="200.5" y="-377.9" style="font-family:Times New Roman;font-size:14.00;">create_attach_media_item</text>
<text text-anchor="start" x="200.5" y="-360.9" style="font-family:Times New Roman;font-size:14.00;">destroy</text>
<text text-anchor="start" x="200.5" y="-343.9" style="font-family:Times New Roman;font-size:14.00;">edit</text>
<text text-anchor="start" x="200.5" y="-326.9" style="font-family:Times New Roman;font-size:14.00;">index</text>
<text text-anchor="start" x="200.5" y="-309.9" style="font-family:Times New Roman;font-size:14.00;">new</text>
<text text-anchor="start" x="200.5" y="-292.9" style="font-family:Times New Roman;font-size:14.00;">new_attach_media_item</text>
<text text-anchor="start" x="200.5" y="-275.9" style="font-family:Times New Roman;font-size:14.00;">show</text>
<text text-anchor="start" x="200.5" y="-258.9" style="font-family:Times New Roman;font-size:14.00;">update</text>
<polyline style="fill:none;stroke:black;" points="193,-251 430,-251 "/>
<polyline style="fill:none;stroke:black;" points="193,-227 430,-227 "/>
<text text-anchor="start" x="200.5" y="-209.9" style="font-family:Times New Roman;font-size:14.00;">_layout</text>
<text text-anchor="start" x="200.5" y="-192.9" style="font-family:Times New Roman;font-size:14.00;">_run_process_action_callbacks</text>
<text text-anchor="start" x="200.5" y="-175.9" style="font-family:Times New Roman;font-size:14.00;">terms_agreement</text>
</g>
</g>
</svg>
