<?xml version="1.0" encoding="UTF-8" standalone="no"?>
<!DOCTYPE svg PUBLIC "-//W3C//DTD SVG 1.0//EN"
 "http://www.w3.org/TR/2001/REC-SVG-20010904/DTD/svg10.dtd" [
 <!ATTLIST svg xmlns:xlink CDATA #FIXED "http://www.w3.org/1999/xlink">
]>
<!-- Generated by Graphviz version 2.20.2 (Tue Mar &#160;2 19:03:41 UTC 2010)
     For user: (johnf) John Ferlito,,, -->
<!-- Title: models_diagram Pages: 1 -->
<svg width="1109pt" height="1366pt"
 viewBox="0.00 0.00 1109.00 1366.00" xmlns="http://www.w3.org/2000/svg" xmlns:xlink="http://www.w3.org/1999/xlink">
<g id="graph0" class="graph" transform="scale(1 1) rotate(0) translate(4 1362)">
<title>models_diagram</title>
<polygon style="fill:white;stroke:white;" points="-4,4 -4,-1362 1105,-1362 1105,4 -4,4"/>
<!-- _diagram_info -->
<g id="node1" class="node"><title>_diagram_info</title>
<text text-anchor="start" x="7.5" y="-1227.8" style="font-family:Times New Roman;font-size:13.00;">Models diagram</text>
<text text-anchor="start" x="7.5" y="-1210.8" style="font-family:Times New Roman;font-size:13.00;">Date: Feb 10 2011 &#45; 12:19</text>
<text text-anchor="start" x="7.5" y="-1193.8" style="font-family:Times New Roman;font-size:13.00;">Migration version: 20110206052402</text>
<text text-anchor="start" x="7.5" y="-1176.8" style="font-family:Times New Roman;font-size:13.00;">Generated by RailRoady 1.0.1</text>
<text text-anchor="start" x="7.5" y="-1159.8" style="font-family:Times New Roman;font-size:13.00;">http://railroady.prestonlee.com</text>
</g>
<!-- Country -->
<g id="node2" class="node"><title>Country</title>
<polygon style="fill:none;stroke:black;" points="133,-837 133,-887 205,-887 205,-837 133,-837"/>
<text text-anchor="middle" x="169" y="-869.9" style="font-family:Times New Roman;font-size:14.00;">Country</text>
<polyline style="fill:none;stroke:black;" points="133,-862 205,-862 "/>
<text text-anchor="middle" x="169" y="-844.9" style="font-family:Times New Roman;font-size:14.00;"> </text>
</g>
<!-- TranscriptMorpheme -->
<g id="node3" class="node"><title>TranscriptMorpheme</title>
<polyline style="fill:none;stroke:black;" points="604,-0 736,-0 "/>
<path style="fill:none;stroke:black;" d="M736,-0C742,-0 748,-6 748,-12"/>
<polyline style="fill:none;stroke:black;" points="748,-12 748,-72 "/>
<path style="fill:none;stroke:black;" d="M748,-72C748,-78 742,-84 736,-84"/>
<polyline style="fill:none;stroke:black;" points="736,-84 604,-84 "/>
<path style="fill:none;stroke:black;" d="M604,-84C598,-84 592,-78 592,-72"/>
<polyline style="fill:none;stroke:black;" points="592,-72 592,-12 "/>
<path style="fill:none;stroke:black;" d="M592,-12C592,-6 598,-0 604,-0"/>
<text text-anchor="middle" x="670" y="-66.9" style="font-family:Times New Roman;font-size:14.00;">TranscriptMorpheme</text>
<polyline style="fill:none;stroke:black;" points="592,-59 748,-59 "/>
<text text-anchor="start" x="600" y="-41.9" style="font-family:Times New Roman;font-size:14.00;">position :integer</text>
<text text-anchor="start" x="600" y="-24.9" style="font-family:Times New Roman;font-size:14.00;">morpheme :string</text>
<text text-anchor="start" x="600" y="-7.9" style="font-family:Times New Roman;font-size:14.00;">gloss :string</text>
</g>
<!-- Transcript -->
<g id="node4" class="node"><title>Transcript</title>
<polyline style="fill:none;stroke:black;" points="417,-416 616,-416 "/>
<path style="fill:none;stroke:black;" d="M616,-416C622,-416 628,-422 628,-428"/>
<polyline style="fill:none;stroke:black;" points="628,-428 628,-675 "/>
<path style="fill:none;stroke:black;" d="M628,-675C628,-681 622,-687 616,-687"/>
<polyline style="fill:none;stroke:black;" points="616,-687 417,-687 "/>
<path style="fill:none;stroke:black;" d="M417,-687C411,-687 405,-681 405,-675"/>
<polyline style="fill:none;stroke:black;" points="405,-675 405,-428 "/>
<path style="fill:none;stroke:black;" d="M405,-428C405,-422 411,-416 417,-416"/>
<text text-anchor="middle" x="516" y="-669.9" style="font-family:Times New Roman;font-size:14.00;">Transcript</text>
<polyline style="fill:none;stroke:black;" points="405,-662 628,-662 "/>
<text text-anchor="start" x="412.5" y="-645.4" style="font-family:Times New Roman;font-size:14.00;">title :string</text>
<text text-anchor="start" x="412.5" y="-628.4" style="font-family:Times New Roman;font-size:14.00;">date :datetime</text>
<text text-anchor="start" x="412.5" y="-611.4" style="font-family:Times New Roman;font-size:14.00;">country_code :string</text>
<text text-anchor="start" x="412.5" y="-594.4" style="font-family:Times New Roman;font-size:14.00;">language_code :string</text>
<text text-anchor="start" x="412.5" y="-577.4" style="font-family:Times New Roman;font-size:14.00;">copyright :string</text>
<text text-anchor="start" x="412.5" y="-560.4" style="font-family:Times New Roman;font-size:14.00;">license :string</text>
<text text-anchor="start" x="412.5" y="-543.4" style="font-family:Times New Roman;font-size:14.00;">private :boolean</text>
<text text-anchor="start" x="412.5" y="-526.4" style="font-family:Times New Roman;font-size:14.00;">original_file_name :string</text>
<text text-anchor="start" x="412.5" y="-509.4" style="font-family:Times New Roman;font-size:14.00;">original_content_type :string</text>
<text text-anchor="start" x="412.5" y="-492.4" style="font-family:Times New Roman;font-size:14.00;">original_file_size :string</text>
<text text-anchor="start" x="412.5" y="-475.4" style="font-family:Times New Roman;font-size:14.00;">original_updated_at :datetime</text>
<text text-anchor="start" x="412.5" y="-458.4" style="font-family:Times New Roman;font-size:14.00;">transcript_format :string</text>
<text text-anchor="start" x="412.5" y="-441.4" style="font-family:Times New Roman;font-size:14.00;">created_at :datetime</text>
<text text-anchor="start" x="412.5" y="-424.4" style="font-family:Times New Roman;font-size:14.00;">updated_at :datetime</text>
</g>
<!-- Participant -->
<g id="node11" class="node"><title>Participant</title>
<polyline style="fill:none;stroke:black;" points="430,-260 571,-260 "/>
<path style="fill:none;stroke:black;" d="M571,-260C577,-260 583,-266 583,-272"/>
<polyline style="fill:none;stroke:black;" points="583,-272 583,-349 "/>
<path style="fill:none;stroke:black;" d="M583,-349C583,-355 577,-361 571,-361"/>
<polyline style="fill:none;stroke:black;" points="571,-361 430,-361 "/>
<path style="fill:none;stroke:black;" d="M430,-361C424,-361 418,-355 418,-349"/>
<polyline style="fill:none;stroke:black;" points="418,-349 418,-272 "/>
<path style="fill:none;stroke:black;" d="M418,-272C418,-266 424,-260 430,-260"/>
<text text-anchor="middle" x="500" y="-343.9" style="font-family:Times New Roman;font-size:14.00;">Participant</text>
<polyline style="fill:none;stroke:black;" points="418,-336 583,-336 "/>
<text text-anchor="start" x="425.5" y="-319.4" style="font-family:Times New Roman;font-size:14.00;">name :string</text>
<text text-anchor="start" x="425.5" y="-302.4" style="font-family:Times New Roman;font-size:14.00;">role :string</text>
<text text-anchor="start" x="425.5" y="-285.4" style="font-family:Times New Roman;font-size:14.00;">created_at :datetime</text>
<text text-anchor="start" x="425.5" y="-268.4" style="font-family:Times New Roman;font-size:14.00;">updated_at :datetime</text>
</g>
<!-- Transcript&#45;&gt;Participant -->
<g id="edge6" class="edge"><title>Transcript&#45;&gt;Participant</title>
<path style="fill:none;stroke:black;" d="M507,-408C505,-395 505,-383 504,-371"/>
<ellipse style="fill:none;stroke:black;" cx="507" cy="-412" rx="4" ry="4"/>
<polygon style="fill:black;stroke:black;" points="503.995,-370.95 507.478,-360.552 503.498,-365.975 503,-361 503,-361 503,-361 503.498,-365.975 498.522,-361.448 503.995,-370.95 503.995,-370.95"/>
</g>
<!-- TranscriptPhrase -->
<g id="node12" class="node"><title>TranscriptPhrase</title>
<polyline style="fill:none;stroke:black;" points="612,-260 728,-260 "/>
<path style="fill:none;stroke:black;" d="M728,-260C734,-260 740,-266 740,-272"/>
<polyline style="fill:none;stroke:black;" points="740,-272 740,-349 "/>
<path style="fill:none;stroke:black;" d="M740,-349C740,-355 734,-361 728,-361"/>
<polyline style="fill:none;stroke:black;" points="728,-361 612,-361 "/>
<path style="fill:none;stroke:black;" d="M612,-361C606,-361 600,-355 600,-349"/>
<polyline style="fill:none;stroke:black;" points="600,-349 600,-272 "/>
<path style="fill:none;stroke:black;" d="M600,-272C600,-266 606,-260 612,-260"/>
<text text-anchor="middle" x="670" y="-343.9" style="font-family:Times New Roman;font-size:14.00;">TranscriptPhrase</text>
<polyline style="fill:none;stroke:black;" points="600,-336 740,-336 "/>
<text text-anchor="start" x="608" y="-319.4" style="font-family:Times New Roman;font-size:14.00;">start_time :float</text>
<text text-anchor="start" x="608" y="-302.4" style="font-family:Times New Roman;font-size:14.00;">end_time :float</text>
<text text-anchor="start" x="608" y="-285.4" style="font-family:Times New Roman;font-size:14.00;">original :string</text>
<text text-anchor="start" x="608" y="-268.4" style="font-family:Times New Roman;font-size:14.00;">translation :string</text>
</g>
<!-- Transcript&#45;&gt;TranscriptPhrase -->
<g id="edge4" class="edge"><title>Transcript&#45;&gt;TranscriptPhrase</title>
<path style="fill:none;stroke:black;" d="M607,-409C616,-395 625,-382 633,-370"/>
<ellipse style="fill:none;stroke:black;" cx="604.985" cy="-412.527" rx="4.00002" ry="4.00002"/>
<polygon style="fill:black;stroke:black;" points="633.144,-369.742 641.934,-363.185 635.572,-365.371 638,-361 638,-361 638,-361 635.572,-365.371 634.066,-358.815 633.144,-369.742 633.144,-369.742"/>
<text text-anchor="middle" x="653" y="-384.9" style="font-family:Times New Roman;font-size:14.00;">phrases</text>
</g>
<!-- CountryLanguage -->
<g id="node5" class="node"><title>CountryLanguage</title>
<polygon style="fill:none;stroke:black;" points="223,-837 223,-887 363,-887 363,-837 223,-837"/>
<text text-anchor="middle" x="293" y="-869.9" style="font-family:Times New Roman;font-size:14.00;">CountryLanguage</text>
<polyline style="fill:none;stroke:black;" points="223,-862 363,-862 "/>
<text text-anchor="middle" x="293" y="-844.9" style="font-family:Times New Roman;font-size:14.00;"> </text>
</g>
<!-- UserSession -->
<g id="node6" class="node"><title>UserSession</title>
<polygon style="fill:none;stroke:black;" points="743,-837 743,-887 842,-887 842,-837 743,-837"/>
<text text-anchor="middle" x="792" y="-869.9" style="font-family:Times New Roman;font-size:14.00;">UserSession</text>
<polyline style="fill:none;stroke:black;" points="743,-862 842,-862 "/>
<text text-anchor="middle" x="792" y="-844.9" style="font-family:Times New Roman;font-size:14.00;"> </text>
</g>
<!-- TranscriptWord -->
<g id="node7" class="node"><title>TranscriptWord</title>
<polyline style="fill:none;stroke:black;" points="618,-138 723,-138 "/>
<path style="fill:none;stroke:black;" d="M723,-138C729,-138 735,-144 735,-150"/>
<polyline style="fill:none;stroke:black;" points="735,-150 735,-193 "/>
<path style="fill:none;stroke:black;" d="M735,-193C735,-199 729,-205 723,-205"/>
<polyline style="fill:none;stroke:black;" points="723,-205 618,-205 "/>
<path style="fill:none;stroke:black;" d="M618,-205C612,-205 606,-199 606,-193"/>
<polyline style="fill:none;stroke:black;" points="606,-193 606,-150 "/>
<path style="fill:none;stroke:black;" d="M606,-150C606,-144 612,-138 618,-138"/>
<text text-anchor="middle" x="670" y="-187.9" style="font-family:Times New Roman;font-size:14.00;">TranscriptWord</text>
<polyline style="fill:none;stroke:black;" points="606,-180 735,-180 "/>
<text text-anchor="start" x="613.5" y="-163.4" style="font-family:Times New Roman;font-size:14.00;">position :integer</text>
<text text-anchor="start" x="613.5" y="-146.4" style="font-family:Times New Roman;font-size:14.00;">word :string</text>
</g>
<!-- TranscriptWord&#45;&gt;TranscriptMorpheme -->
<g id="edge12" class="edge"><title>TranscriptWord&#45;&gt;TranscriptMorpheme</title>
<path style="fill:none;stroke:black;" d="M670,-130C670,-118 670,-106 670,-94"/>
<ellipse style="fill:none;stroke:black;" cx="670" cy="-134" rx="4" ry="4"/>
<polygon style="fill:black;stroke:black;" points="670,-94 674.5,-84 670,-89 670,-84 670,-84 670,-84 670,-89 665.5,-84 670,-94 670,-94"/>
<text text-anchor="middle" x="710" y="-106.9" style="font-family:Times New Roman;font-size:14.00;">morphemes</text>
</g>
<!-- MediaItem -->
<g id="node8" class="node"><title>MediaItem</title>
<polyline style="fill:none;stroke:black;" points="515,-726 714,-726 "/>
<path style="fill:none;stroke:black;" d="M714,-726C720,-726 726,-732 726,-738"/>
<polyline style="fill:none;stroke:black;" points="726,-738 726,-985 "/>
<path style="fill:none;stroke:black;" d="M726,-985C726,-991 720,-997 714,-997"/>
<polyline style="fill:none;stroke:black;" points="714,-997 515,-997 "/>
<path style="fill:none;stroke:black;" d="M515,-997C509,-997 503,-991 503,-985"/>
<polyline style="fill:none;stroke:black;" points="503,-985 503,-738 "/>
<path style="fill:none;stroke:black;" d="M503,-738C503,-732 509,-726 515,-726"/>
<text text-anchor="middle" x="614" y="-979.9" style="font-family:Times New Roman;font-size:14.00;">MediaItem</text>
<polyline style="fill:none;stroke:black;" points="503,-972 726,-972 "/>
<text text-anchor="start" x="510.5" y="-955.4" style="font-family:Times New Roman;font-size:14.00;">title :string</text>
<text text-anchor="start" x="510.5" y="-938.4" style="font-family:Times New Roman;font-size:14.00;">description :text</text>
<text text-anchor="start" x="510.5" y="-921.4" style="font-family:Times New Roman;font-size:14.00;">recorded_on :datetime</text>
<text text-anchor="start" x="510.5" y="-904.4" style="font-family:Times New Roman;font-size:14.00;">copyright :string</text>
<text text-anchor="start" x="510.5" y="-887.4" style="font-family:Times New Roman;font-size:14.00;">license :string</text>
<text text-anchor="start" x="510.5" y="-870.4" style="font-family:Times New Roman;font-size:14.00;">private :boolean</text>
<text text-anchor="start" x="510.5" y="-853.4" style="font-family:Times New Roman;font-size:14.00;">format :string</text>
<text text-anchor="start" x="510.5" y="-836.4" style="font-family:Times New Roman;font-size:14.00;">original_file_name :string</text>
<text text-anchor="start" x="510.5" y="-819.4" style="font-family:Times New Roman;font-size:14.00;">original_content_type :string</text>
<text text-anchor="start" x="510.5" y="-802.4" style="font-family:Times New Roman;font-size:14.00;">original_file_size :string</text>
<text text-anchor="start" x="510.5" y="-785.4" style="font-family:Times New Roman;font-size:14.00;">original_updated_at :datetime</text>
<text text-anchor="start" x="510.5" y="-768.4" style="font-family:Times New Roman;font-size:14.00;">original_processing :boolean</text>
<text text-anchor="start" x="510.5" y="-751.4" style="font-family:Times New Roman;font-size:14.00;">created_at :datetime</text>
<text text-anchor="start" x="510.5" y="-734.4" style="font-family:Times New Roman;font-size:14.00;">updated_at :datetime</text>
</g>
<!-- MediaItem&#45;&gt;Transcript -->
<g id="edge14" class="edge"><title>MediaItem&#45;&gt;Transcript</title>
<path style="fill:none;stroke:black;" d="M569,-718C566,-711 564,-704 562,-697"/>
<ellipse style="fill:none;stroke:black;" cx="570.03" cy="-722.119" rx="4.00001" ry="4.00001"/>
<polygon style="fill:black;stroke:black;" points="561.874,-696.578 563.31,-685.707 560.437,-691.789 559,-687 559,-687 559,-687 560.437,-691.789 554.69,-688.293 561.874,-696.578 561.874,-696.578"/>
</g>
<!-- User -->
<g id="node9" class="node"><title>User</title>
<polyline style="fill:none;stroke:black;" points="421,-1036 599,-1036 "/>
<path style="fill:none;stroke:black;" d="M599,-1036C605,-1036 611,-1042 611,-1048"/>
<polyline style="fill:none;stroke:black;" points="611,-1048 611,-1346 "/>
<path style="fill:none;stroke:black;" d="M611,-1346C611,-1352 605,-1358 599,-1358"/>
<polyline style="fill:none;stroke:black;" points="599,-1358 421,-1358 "/>
<path style="fill:none;stroke:black;" d="M421,-1358C415,-1358 409,-1352 409,-1346"/>
<polyline style="fill:none;stroke:black;" points="409,-1346 409,-1048 "/>
<path style="fill:none;stroke:black;" d="M409,-1048C409,-1042 415,-1036 421,-1036"/>
<text text-anchor="middle" x="510" y="-1340.9" style="font-family:Times New Roman;font-size:14.00;">User</text>
<polyline style="fill:none;stroke:black;" points="409,-1333 611,-1333 "/>
<text text-anchor="start" x="417" y="-1315.9" style="font-family:Times New Roman;font-size:14.00;">email :string</text>
<text text-anchor="start" x="417" y="-1298.9" style="font-family:Times New Roman;font-size:14.00;">crypted_password :string</text>
<text text-anchor="start" x="417" y="-1281.9" style="font-family:Times New Roman;font-size:14.00;">password_salt :string</text>
<text text-anchor="start" x="417" y="-1264.9" style="font-family:Times New Roman;font-size:14.00;">persistence_token :string</text>
<text text-anchor="start" x="417" y="-1247.9" style="font-family:Times New Roman;font-size:14.00;">single_access_token :string</text>
<text text-anchor="start" x="417" y="-1230.9" style="font-family:Times New Roman;font-size:14.00;">perishable_token :string</text>
<text text-anchor="start" x="417" y="-1213.9" style="font-family:Times New Roman;font-size:14.00;">last_request_at :datetime</text>
<text text-anchor="start" x="417" y="-1196.9" style="font-family:Times New Roman;font-size:14.00;">current_login_at :datetime</text>
<text text-anchor="start" x="417" y="-1179.9" style="font-family:Times New Roman;font-size:14.00;">last_login_at :datetime</text>
<text text-anchor="start" x="417" y="-1162.9" style="font-family:Times New Roman;font-size:14.00;">current_login_ip :string</text>
<text text-anchor="start" x="417" y="-1145.9" style="font-family:Times New Roman;font-size:14.00;">last_login_ip :string</text>
<text text-anchor="start" x="417" y="-1128.9" style="font-family:Times New Roman;font-size:14.00;">first_name :string</text>
<text text-anchor="start" x="417" y="-1111.9" style="font-family:Times New Roman;font-size:14.00;">last_name :string</text>
<text text-anchor="start" x="417" y="-1094.9" style="font-family:Times New Roman;font-size:14.00;">roles :string</text>
<text text-anchor="start" x="417" y="-1077.9" style="font-family:Times New Roman;font-size:14.00;">confirmed_at :datetime</text>
<text text-anchor="start" x="417" y="-1060.9" style="font-family:Times New Roman;font-size:14.00;">created_at :datetime</text>
<text text-anchor="start" x="417" y="-1043.9" style="font-family:Times New Roman;font-size:14.00;">updated_at :datetime</text>
</g>
<!-- User&#45;&gt;Transcript -->
<g id="edge18" class="edge"><title>User&#45;&gt;Transcript</title>
<path style="fill:none;stroke:black;" d="M495,-1028C495,-1018 495,-1007 494,-998 490,-877 487,-846 494,-726 495,-716 495,-707 496,-697"/>
<ellipse style="fill:none;stroke:black;" cx="495.504" cy="-1032.03" rx="4.00001" ry="4.00001"/>
<polygon style="fill:black;stroke:black;" points="496.005,-696.95 501.478,-687.448 496.502,-691.975 497,-687 497,-687 497,-687 496.502,-691.975 492.522,-686.552 496.005,-696.95 496.005,-696.95"/>
</g>
<!-- User&#45;&gt;MediaItem -->
<g id="edge16" class="edge"><title>User&#45;&gt;MediaItem</title>
<path style="fill:none;stroke:black;" d="M562,-1028C565,-1021 567,-1014 569,-1007"/>
<ellipse style="fill:none;stroke:black;" cx="560.97" cy="-1032.12" rx="4.00001" ry="4.00001"/>
<polygon style="fill:black;stroke:black;" points="569.126,-1006.58 576.31,-998.293 570.563,-1001.79 572,-997 572,-997 572,-997 570.563,-1001.79 567.69,-995.707 569.126,-1006.58 569.126,-1006.58"/>
</g>
<!-- License -->
<g id="node10" class="node"><title>License</title>
<polygon style="fill:none;stroke:black;" points="381,-837 381,-887 448,-887 448,-837 381,-837"/>
<text text-anchor="middle" x="414" y="-869.9" style="font-family:Times New Roman;font-size:14.00;">License</text>
<polyline style="fill:none;stroke:black;" points="381,-862 448,-862 "/>
<text text-anchor="middle" x="414" y="-844.9" style="font-family:Times New Roman;font-size:14.00;"> </text>
</g>
<!-- TranscriptPhrase&#45;&gt;TranscriptWord -->
<g id="edge22" class="edge"><title>TranscriptPhrase&#45;&gt;TranscriptWord</title>
<path style="fill:none;stroke:black;" d="M670,-252C670,-240 670,-227 670,-215"/>
<ellipse style="fill:none;stroke:black;" cx="670" cy="-256" rx="4" ry="4"/>
<polygon style="fill:black;stroke:black;" points="670,-215 674.5,-205 670,-210 670,-205 670,-205 670,-205 670,-210 665.5,-205 670,-215 670,-215"/>
<text text-anchor="middle" x="691" y="-228.9" style="font-family:Times New Roman;font-size:14.00;">words</text>
</g>
<!-- AppConfig -->
<g id="node13" class="node"><title>AppConfig</title>
<polyline style="fill:none;stroke:black;" points="949,-1146 1090,-1146 "/>
<path style="fill:none;stroke:black;" d="M1090,-1146C1096,-1146 1102,-1152 1102,-1158"/>
<polyline style="fill:none;stroke:black;" points="1102,-1158 1102,-1235 "/>
<path style="fill:none;stroke:black;" d="M1102,-1235C1102,-1241 1096,-1247 1090,-1247"/>
<polyline style="fill:none;stroke:black;" points="1090,-1247 949,-1247 "/>
<path style="fill:none;stroke:black;" d="M949,-1247C943,-1247 937,-1241 937,-1235"/>
<polyline style="fill:none;stroke:black;" points="937,-1235 937,-1158 "/>
<path style="fill:none;stroke:black;" d="M937,-1158C937,-1152 943,-1146 949,-1146"/>
<text text-anchor="middle" x="1019" y="-1229.9" style="font-family:Times New Roman;font-size:14.00;">AppConfig</text>
<polyline style="fill:none;stroke:black;" points="937,-1222 1102,-1222 "/>
<text text-anchor="start" x="944.5" y="-1205.4" style="font-family:Times New Roman;font-size:14.00;">name :string</text>
<text text-anchor="start" x="944.5" y="-1188.4" style="font-family:Times New Roman;font-size:14.00;">value :string</text>
<text text-anchor="start" x="944.5" y="-1171.4" style="font-family:Times New Roman;font-size:14.00;">created_at :datetime</text>
<text text-anchor="start" x="944.5" y="-1154.4" style="font-family:Times New Roman;font-size:14.00;">updated_at :datetime</text>
</g>
<g id="node14" class="node"><title></title>
<ellipse style="fill:none;stroke:black;" cx="293" cy="-1197" rx="27" ry="18"/>
</g>
<!-- &#45;&gt;Country -->
<g id="edge2" class="edge"><title>&#45;&gt;Country</title>
<path style="fill:none;stroke:black;" d="M292,-1169C290,-1134 282,-1078 257,-1036 245,-1014 229,-1019 214,-998 191,-963 179,-916 173,-887"/>
<polygon style="fill:none;stroke:black;" points="288.522,-1169.4 293,-1179 295.488,-1168.7 288.522,-1169.4"/>
</g>
<!-- &#45;&gt;CountryLanguage -->
<g id="edge8" class="edge"><title>&#45;&gt;CountryLanguage</title>
<path style="fill:none;stroke:black;" d="M293,-1169C293,-1105 293,-948 293,-887"/>
<polygon style="fill:none;stroke:black;" points="289.5,-1169 293,-1179 296.5,-1169 289.5,-1169"/>
</g>
<!-- &#45;&gt;License -->
<g id="edge20" class="edge"><title>&#45;&gt;License</title>
<path style="fill:none;stroke:black;" d="M305,-1171C321,-1132 351,-1060 372,-998 386,-960 399,-915 407,-887"/>
<polygon style="fill:none;stroke:black;" points="301.863,-1169.44 301,-1180 308.26,-1172.28 301.863,-1169.44"/>
</g>
<!-- Authlogic::Session::Base -->
<g id="node19" class="node"><title>Authlogic::Session::Base</title>
<ellipse style="fill:none;stroke:black;" cx="792" cy="-1197" rx="127.163" ry="18"/>
<text text-anchor="middle" x="792" y="-1192.9" style="font-family:Times New Roman;font-size:14.00;">Authlogic::Session::Base</text>
</g>
<!-- Authlogic::Session::Base&#45;&gt;UserSession -->
<g id="edge10" class="edge"><title>Authlogic::Session::Base&#45;&gt;UserSession</title>
<path style="fill:none;stroke:black;" d="M792,-1169C792,-1105 792,-948 792,-887"/>
<polygon style="fill:none;stroke:black;" points="788.5,-1169 792,-1179 795.5,-1169 788.5,-1169"/>
</g>
</g>
</svg>
