<?xml version="1.0" encoding="UTF-8" standalone="no"?>
<!DOCTYPE svg PUBLIC "-//W3C//DTD SVG 1.1//EN"
 "http://www.w3.org/Graphics/SVG/1.1/DTD/svg11.dtd">
<!-- Generated by graphviz version 2.26.3 (20100126.1600)
 -->
<!-- Title: models_diagram Pages: 1 -->
<svg width="1057pt" height="1392pt"
 viewBox="0.00 0.00 1057.00 1392.00" xmlns="http://www.w3.org/2000/svg" xmlns:xlink="http://www.w3.org/1999/xlink">
<g id="graph1" class="graph" transform="scale(1 1) rotate(0) translate(4 1388)">
<title>models_diagram</title>
<polygon fill="white" stroke="white" points="-4,5 -4,-1388 1054,-1388 1054,5 -4,5"/>
<!-- _diagram_info -->
<g id="node1" class="node"><title>_diagram_info</title>
<text text-anchor="start" x="7.78833" y="-1250" font-family="Times,serif" font-size="13.00">Models diagram</text>
<text text-anchor="start" x="7.78833" y="-1234.4" font-family="Times,serif" font-size="13.00">Date: Apr 03 2011 &#45; 14:40</text>
<text text-anchor="start" x="7.78833" y="-1218.8" font-family="Times,serif" font-size="13.00">Migration version: 20110211064726</text>
<text text-anchor="start" x="7.78833" y="-1203.2" font-family="Times,serif" font-size="13.00">Generated by RailRoady 1.0.2</text>
<text text-anchor="start" x="7.78833" y="-1187.6" font-family="Times,serif" font-size="13.00">http://railroady.prestonlee.com</text>
</g>
<!-- AppConfig -->
<g id="node2" class="node"><title>AppConfig</title>
<polyline fill="none" stroke="black" points="235.495,-1174 344.505,-1174 "/>
<path fill="none" stroke="black" d="M344.505,-1174C350.505,-1174 356.505,-1180 356.505,-1186"/>
<polyline fill="none" stroke="black" points="356.505,-1186 356.505,-1262 "/>
<path fill="none" stroke="black" d="M356.505,-1262C356.505,-1268 350.505,-1274 344.505,-1274"/>
<polyline fill="none" stroke="black" points="344.505,-1274 235.495,-1274 "/>
<path fill="none" stroke="black" d="M235.495,-1274C229.495,-1274 223.495,-1268 223.495,-1262"/>
<polyline fill="none" stroke="black" points="223.495,-1262 223.495,-1186 "/>
<path fill="none" stroke="black" d="M223.495,-1186C223.495,-1180 229.495,-1174 235.495,-1174"/>
<text text-anchor="middle" x="290" y="-1256" font-family="Times,serif" font-size="14.00">AppConfig</text>
<polyline fill="none" stroke="black" points="223.495,-1249.2 356.505,-1249.2 "/>
<text text-anchor="start" x="231.495" y="-1231.2" font-family="Times,serif" font-size="14.00">name :string</text>
<text text-anchor="start" x="231.495" y="-1214.4" font-family="Times,serif" font-size="14.00">value :string</text>
<text text-anchor="start" x="231.495" y="-1197.6" font-family="Times,serif" font-size="14.00">created_at :datetime</text>
<text text-anchor="start" x="231.495" y="-1180.8" font-family="Times,serif" font-size="14.00">updated_at :datetime</text>
</g>
<!-- Country -->
<g id="node3" class="node"><title>Country</title>
<polygon fill="none" stroke="black" points="263.055,-858.2 263.055,-907.8 324.945,-907.8 324.945,-858.2 263.055,-858.2"/>
<text text-anchor="middle" x="294" y="-889.8" font-family="Times,serif" font-size="14.00">Country</text>
<polyline fill="none" stroke="black" points="263.055,-883 324.945,-883 "/>
<text text-anchor="middle" x="294" y="-865" font-family="Times,serif" font-size="14.00"> </text>
</g>
<!-- CountryLanguage -->
<g id="node4" class="node"><title>CountryLanguage</title>
<polygon fill="none" stroke="black" points="342.458,-858.2 342.458,-907.8 459.542,-907.8 459.542,-858.2 342.458,-858.2"/>
<text text-anchor="middle" x="401" y="-889.8" font-family="Times,serif" font-size="14.00">CountryLanguage</text>
<polyline fill="none" stroke="black" points="342.458,-883 459.542,-883 "/>
<text text-anchor="middle" x="401" y="-865" font-family="Times,serif" font-size="14.00"> </text>
</g>
<!-- License -->
<g id="node5" class="node"><title>License</title>
<polygon fill="none" stroke="black" points="477.234,-858.2 477.234,-907.8 536.766,-907.8 536.766,-858.2 477.234,-858.2"/>
<text text-anchor="middle" x="507" y="-889.8" font-family="Times,serif" font-size="14.00">License</text>
<polyline fill="none" stroke="black" points="477.234,-883 536.766,-883 "/>
<text text-anchor="middle" x="507" y="-865" font-family="Times,serif" font-size="14.00"> </text>
</g>
<!-- MediaItem -->
<g id="node6" class="node"><title>MediaItem</title>
<polyline fill="none" stroke="black" points="567.222,-740.6 726.778,-740.6 "/>
<path fill="none" stroke="black" d="M726.778,-740.6C732.778,-740.6 738.778,-746.6 738.778,-752.6"/>
<polyline fill="none" stroke="black" points="738.778,-752.6 738.778,-1013.4 "/>
<path fill="none" stroke="black" d="M738.778,-1013.4C738.778,-1019.4 732.778,-1025.4 726.778,-1025.4"/>
<polyline fill="none" stroke="black" points="726.778,-1025.4 567.222,-1025.4 "/>
<path fill="none" stroke="black" d="M567.222,-1025.4C561.222,-1025.4 555.222,-1019.4 555.222,-1013.4"/>
<polyline fill="none" stroke="black" points="555.222,-1013.4 555.222,-752.6 "/>
<path fill="none" stroke="black" d="M555.222,-752.6C555.222,-746.6 561.222,-740.6 567.222,-740.6"/>
<text text-anchor="middle" x="647" y="-1007.4" font-family="Times,serif" font-size="14.00">MediaItem</text>
<polyline fill="none" stroke="black" points="555.222,-1000.6 738.778,-1000.6 "/>
<text text-anchor="start" x="563.222" y="-982.6" font-family="Times,serif" font-size="14.00">title :string</text>
<text text-anchor="start" x="563.222" y="-965.8" font-family="Times,serif" font-size="14.00">original_file_name :string</text>
<text text-anchor="start" x="563.222" y="-949" font-family="Times,serif" font-size="14.00">original_content_type :string</text>
<text text-anchor="start" x="563.222" y="-932.2" font-family="Times,serif" font-size="14.00">original_file_size :string</text>
<text text-anchor="start" x="563.222" y="-915.4" font-family="Times,serif" font-size="14.00">original_updated_at :datetime</text>
<text text-anchor="start" x="563.222" y="-898.6" font-family="Times,serif" font-size="14.00">recorded_on :datetime</text>
<text text-anchor="start" x="563.222" y="-881.8" font-family="Times,serif" font-size="14.00">copyright :string</text>
<text text-anchor="start" x="563.222" y="-865" font-family="Times,serif" font-size="14.00">license :string</text>
<text text-anchor="start" x="563.222" y="-848.2" font-family="Times,serif" font-size="14.00">private :boolean</text>
<text text-anchor="start" x="563.222" y="-831.4" font-family="Times,serif" font-size="14.00">created_at :datetime</text>
<text text-anchor="start" x="563.222" y="-814.6" font-family="Times,serif" font-size="14.00">updated_at :datetime</text>
<text text-anchor="start" x="563.222" y="-797.8" font-family="Times,serif" font-size="14.00">original_processing :boolean</text>
<text text-anchor="start" x="563.222" y="-781" font-family="Times,serif" font-size="14.00">format :string</text>
<text text-anchor="start" x="563.222" y="-764.2" font-family="Times,serif" font-size="14.00">country_code :string</text>
<text text-anchor="start" x="563.222" y="-747.4" font-family="Times,serif" font-size="14.00">description :text</text>
</g>
<!-- Transcript -->
<g id="node8" class="node"><title>Transcript</title>
<polyline fill="none" stroke="black" points="651.222,-416.6 810.778,-416.6 "/>
<path fill="none" stroke="black" d="M810.778,-416.6C816.778,-416.6 822.778,-422.6 822.778,-428.6"/>
<polyline fill="none" stroke="black" points="822.778,-428.6 822.778,-689.4 "/>
<path fill="none" stroke="black" d="M822.778,-689.4C822.778,-695.4 816.778,-701.4 810.778,-701.4"/>
<polyline fill="none" stroke="black" points="810.778,-701.4 651.222,-701.4 "/>
<path fill="none" stroke="black" d="M651.222,-701.4C645.222,-701.4 639.222,-695.4 639.222,-689.4"/>
<polyline fill="none" stroke="black" points="639.222,-689.4 639.222,-428.6 "/>
<path fill="none" stroke="black" d="M639.222,-428.6C639.222,-422.6 645.222,-416.6 651.222,-416.6"/>
<text text-anchor="middle" x="731" y="-683.4" font-family="Times,serif" font-size="14.00">Transcript</text>
<polyline fill="none" stroke="black" points="639.222,-676.6 822.778,-676.6 "/>
<text text-anchor="start" x="647.222" y="-658.6" font-family="Times,serif" font-size="14.00">language_code :string</text>
<text text-anchor="start" x="647.222" y="-641.8" font-family="Times,serif" font-size="14.00">date :datetime</text>
<text text-anchor="start" x="647.222" y="-625" font-family="Times,serif" font-size="14.00">original_file_name :string</text>
<text text-anchor="start" x="647.222" y="-608.2" font-family="Times,serif" font-size="14.00">original_content_type :string</text>
<text text-anchor="start" x="647.222" y="-591.4" font-family="Times,serif" font-size="14.00">original_file_size :string</text>
<text text-anchor="start" x="647.222" y="-574.6" font-family="Times,serif" font-size="14.00">original_updated_at :datetime</text>
<text text-anchor="start" x="647.222" y="-557.8" font-family="Times,serif" font-size="14.00">transcript_format :string</text>
<text text-anchor="start" x="647.222" y="-541" font-family="Times,serif" font-size="14.00">created_at :datetime</text>
<text text-anchor="start" x="647.222" y="-524.2" font-family="Times,serif" font-size="14.00">updated_at :datetime</text>
<text text-anchor="start" x="647.222" y="-507.4" font-family="Times,serif" font-size="14.00">title :string</text>
<text text-anchor="start" x="647.222" y="-490.6" font-family="Times,serif" font-size="14.00">private :boolean</text>
<text text-anchor="start" x="647.222" y="-473.8" font-family="Times,serif" font-size="14.00">country_code :string</text>
<text text-anchor="start" x="647.222" y="-457" font-family="Times,serif" font-size="14.00">copyright :string</text>
<text text-anchor="start" x="647.222" y="-440.2" font-family="Times,serif" font-size="14.00">license :string</text>
<text text-anchor="start" x="647.222" y="-423.4" font-family="Times,serif" font-size="14.00">description :text</text>
</g>
<!-- MediaItem&#45;&gt;Transcript -->
<g id="edge8" class="edge"><title>MediaItem&#45;&gt;Transcript</title>
<path fill="none" stroke="black" d="M686.009,-732.537C687.807,-725.6 689.613,-718.634 691.413,-711.692"/>
<ellipse fill="none" stroke="black" cx="684.97" cy="-736.545" rx="4.00001" ry="4.00001"/>
<polygon fill="black" stroke="black" points="691.535,-711.222 698.401,-702.671 692.79,-706.382 694.045,-701.542 694.045,-701.542 694.045,-701.542 692.79,-706.382 689.689,-700.413 691.535,-711.222 691.535,-711.222"/>
</g>
<!-- Participant -->
<g id="node7" class="node"><title>Participant</title>
<polyline fill="none" stroke="black" points="660.495,-261 769.505,-261 "/>
<path fill="none" stroke="black" d="M769.505,-261C775.505,-261 781.505,-267 781.505,-273"/>
<polyline fill="none" stroke="black" points="781.505,-273 781.505,-349 "/>
<path fill="none" stroke="black" d="M781.505,-349C781.505,-355 775.505,-361 769.505,-361"/>
<polyline fill="none" stroke="black" points="769.505,-361 660.495,-361 "/>
<path fill="none" stroke="black" d="M660.495,-361C654.495,-361 648.495,-355 648.495,-349"/>
<polyline fill="none" stroke="black" points="648.495,-349 648.495,-273 "/>
<path fill="none" stroke="black" d="M648.495,-273C648.495,-267 654.495,-261 660.495,-261"/>
<text text-anchor="middle" x="715" y="-343" font-family="Times,serif" font-size="14.00">Participant</text>
<polyline fill="none" stroke="black" points="648.495,-336.2 781.505,-336.2 "/>
<text text-anchor="start" x="656.495" y="-318.2" font-family="Times,serif" font-size="14.00">name :string</text>
<text text-anchor="start" x="656.495" y="-301.4" font-family="Times,serif" font-size="14.00">role :string</text>
<text text-anchor="start" x="656.495" y="-284.6" font-family="Times,serif" font-size="14.00">created_at :datetime</text>
<text text-anchor="start" x="656.495" y="-267.8" font-family="Times,serif" font-size="14.00">updated_at :datetime</text>
</g>
<!-- Transcript&#45;&gt;Participant -->
<g id="edge12" class="edge"><title>Transcript&#45;&gt;Participant</title>
<path fill="none" stroke="black" d="M721.274,-408.244C720.445,-395.391 719.641,-382.941 718.902,-371.482"/>
<ellipse fill="none" stroke="black" cx="721.551" cy="-412.542" rx="4" ry="4"/>
<polygon fill="black" stroke="black" points="718.886,-371.234 722.733,-360.965 718.564,-366.244 718.242,-361.255 718.242,-361.255 718.242,-361.255 718.564,-366.244 713.752,-361.545 718.886,-371.234 718.886,-371.234"/>
</g>
<!-- TranscriptPhrase -->
<g id="node10" class="node"><title>TranscriptPhrase</title>
<polyline fill="none" stroke="black" points="810.812,-261 901.188,-261 "/>
<path fill="none" stroke="black" d="M901.188,-261C907.188,-261 913.188,-267 913.188,-273"/>
<polyline fill="none" stroke="black" points="913.188,-273 913.188,-349 "/>
<path fill="none" stroke="black" d="M913.188,-349C913.188,-355 907.188,-361 901.188,-361"/>
<polyline fill="none" stroke="black" points="901.188,-361 810.812,-361 "/>
<path fill="none" stroke="black" d="M810.812,-361C804.812,-361 798.812,-355 798.812,-349"/>
<polyline fill="none" stroke="black" points="798.812,-349 798.812,-273 "/>
<path fill="none" stroke="black" d="M798.812,-273C798.812,-267 804.812,-261 810.812,-261"/>
<text text-anchor="middle" x="856" y="-343" font-family="Times,serif" font-size="14.00">TranscriptPhrase</text>
<polyline fill="none" stroke="black" points="798.812,-336.2 913.188,-336.2 "/>
<text text-anchor="start" x="806.812" y="-318.2" font-family="Times,serif" font-size="14.00">start_time :float</text>
<text text-anchor="start" x="806.812" y="-301.4" font-family="Times,serif" font-size="14.00">end_time :float</text>
<text text-anchor="start" x="806.812" y="-284.6" font-family="Times,serif" font-size="14.00">original :string</text>
<text text-anchor="start" x="806.812" y="-267.8" font-family="Times,serif" font-size="14.00">translation :string</text>
</g>
<!-- Transcript&#45;&gt;TranscriptPhrase -->
<g id="edge10" class="edge"><title>Transcript&#45;&gt;TranscriptPhrase</title>
<path fill="none" stroke="black" d="M806.524,-409.16C813.399,-395.52 820.055,-382.316 826.137,-370.249"/>
<ellipse fill="none" stroke="black" cx="804.608" cy="-412.962" rx="4.00002" ry="4.00002"/>
<polygon fill="black" stroke="black" points="826.169,-370.185 834.688,-363.28 828.419,-365.72 830.67,-361.255 830.67,-361.255 830.67,-361.255 828.419,-365.72 826.652,-359.229 826.169,-370.185 826.169,-370.185"/>
<text text-anchor="middle" x="840.993" y="-383.4" font-family="Times,serif" font-size="14.00">phrases</text>
</g>
<!-- TranscriptMorpheme -->
<g id="node9" class="node"><title>TranscriptMorpheme</title>
<polyline fill="none" stroke="black" points="800.763,-0.4 911.237,-0.4 "/>
<path fill="none" stroke="black" d="M911.237,-0.4C917.237,-0.4 923.237,-6.4 923.237,-12.4"/>
<polyline fill="none" stroke="black" points="923.237,-12.4 923.237,-71.6 "/>
<path fill="none" stroke="black" d="M923.237,-71.6C923.237,-77.6 917.237,-83.6 911.237,-83.6"/>
<polyline fill="none" stroke="black" points="911.237,-83.6 800.763,-83.6 "/>
<path fill="none" stroke="black" d="M800.763,-83.6C794.763,-83.6 788.763,-77.6 788.763,-71.6"/>
<polyline fill="none" stroke="black" points="788.763,-71.6 788.763,-12.4 "/>
<path fill="none" stroke="black" d="M788.763,-12.4C788.763,-6.4 794.763,-0.4 800.763,-0.4"/>
<text text-anchor="middle" x="856" y="-65.6" font-family="Times,serif" font-size="14.00">TranscriptMorpheme</text>
<polyline fill="none" stroke="black" points="788.763,-58.8 923.237,-58.8 "/>
<text text-anchor="start" x="796.763" y="-40.8" font-family="Times,serif" font-size="14.00">position :integer</text>
<text text-anchor="start" x="796.763" y="-24" font-family="Times,serif" font-size="14.00">morpheme :string</text>
<text text-anchor="start" x="796.763" y="-7.2" font-family="Times,serif" font-size="14.00">gloss :string</text>
</g>
<!-- TranscriptWord -->
<g id="node11" class="node"><title>TranscriptWord</title>
<polyline fill="none" stroke="black" points="814.312,-138.8 897.688,-138.8 "/>
<path fill="none" stroke="black" d="M897.688,-138.8C903.688,-138.8 909.688,-144.8 909.688,-150.8"/>
<polyline fill="none" stroke="black" points="909.688,-150.8 909.688,-193.2 "/>
<path fill="none" stroke="black" d="M909.688,-193.2C909.688,-199.2 903.688,-205.2 897.688,-205.2"/>
<polyline fill="none" stroke="black" points="897.688,-205.2 814.312,-205.2 "/>
<path fill="none" stroke="black" d="M814.312,-205.2C808.312,-205.2 802.312,-199.2 802.312,-193.2"/>
<polyline fill="none" stroke="black" points="802.312,-193.2 802.312,-150.8 "/>
<path fill="none" stroke="black" d="M802.312,-150.8C802.312,-144.8 808.312,-138.8 814.312,-138.8"/>
<text text-anchor="middle" x="856" y="-187.2" font-family="Times,serif" font-size="14.00">TranscriptWord</text>
<polyline fill="none" stroke="black" points="802.312,-180.4 909.688,-180.4 "/>
<text text-anchor="start" x="810.312" y="-162.4" font-family="Times,serif" font-size="14.00">position :integer</text>
<text text-anchor="start" x="810.312" y="-145.6" font-family="Times,serif" font-size="14.00">word :string</text>
</g>
<!-- TranscriptPhrase&#45;&gt;TranscriptWord -->
<g id="edge14" class="edge"><title>TranscriptPhrase&#45;&gt;TranscriptWord</title>
<path fill="none" stroke="black" d="M856,-252.535C856,-240.274 856,-227.542 856,-215.92"/>
<ellipse fill="none" stroke="black" cx="856" cy="-256.818" rx="4" ry="4"/>
<polygon fill="black" stroke="black" points="856,-215.604 860.5,-205.604 856,-210.604 856,-205.604 856,-205.604 856,-205.604 856,-210.604 851.5,-205.604 856,-215.604 856,-215.604"/>
<text text-anchor="middle" x="873.11" y="-227.4" font-family="Times,serif" font-size="14.00">words</text>
</g>
<!-- TranscriptWord&#45;&gt;TranscriptMorpheme -->
<g id="edge16" class="edge"><title>TranscriptWord&#45;&gt;TranscriptMorpheme</title>
<path fill="none" stroke="black" d="M856,-130.449C856,-118.787 856,-105.962 856,-93.7831"/>
<ellipse fill="none" stroke="black" cx="856" cy="-134.522" rx="4" ry="4"/>
<polygon fill="black" stroke="black" points="856,-93.7448 860.5,-83.7447 856,-88.7448 856,-83.7448 856,-83.7448 856,-83.7448 856,-88.7448 851.5,-83.7448 856,-93.7448 856,-93.7448"/>
<text text-anchor="middle" x="888.659" y="-105.4" font-family="Times,serif" font-size="14.00">morphemes</text>
</g>
<!-- User -->
<g id="node12" class="node"><title>User</title>
<polyline fill="none" stroke="black" points="657.212,-1064.8 802.788,-1064.8 "/>
<path fill="none" stroke="black" d="M802.788,-1064.8C808.788,-1064.8 814.788,-1070.8 814.788,-1076.8"/>
<polyline fill="none" stroke="black" points="814.788,-1076.8 814.788,-1371.2 "/>
<path fill="none" stroke="black" d="M814.788,-1371.2C814.788,-1377.2 808.788,-1383.2 802.788,-1383.2"/>
<polyline fill="none" stroke="black" points="802.788,-1383.2 657.212,-1383.2 "/>
<path fill="none" stroke="black" d="M657.212,-1383.2C651.212,-1383.2 645.212,-1377.2 645.212,-1371.2"/>
<polyline fill="none" stroke="black" points="645.212,-1371.2 645.212,-1076.8 "/>
<path fill="none" stroke="black" d="M645.212,-1076.8C645.212,-1070.8 651.212,-1064.8 657.212,-1064.8"/>
<text text-anchor="middle" x="730" y="-1365.2" font-family="Times,serif" font-size="14.00">User</text>
<polyline fill="none" stroke="black" points="645.212,-1358.4 814.788,-1358.4 "/>
<text text-anchor="start" x="653.212" y="-1340.4" font-family="Times,serif" font-size="14.00">email :string</text>
<text text-anchor="start" x="653.212" y="-1323.6" font-family="Times,serif" font-size="14.00">crypted_password :string</text>
<text text-anchor="start" x="653.212" y="-1306.8" font-family="Times,serif" font-size="14.00">password_salt :string</text>
<text text-anchor="start" x="653.212" y="-1290" font-family="Times,serif" font-size="14.00">persistence_token :string</text>
<text text-anchor="start" x="653.212" y="-1273.2" font-family="Times,serif" font-size="14.00">single_access_token :string</text>
<text text-anchor="start" x="653.212" y="-1256.4" font-family="Times,serif" font-size="14.00">perishable_token :string</text>
<text text-anchor="start" x="653.212" y="-1239.6" font-family="Times,serif" font-size="14.00">last_request_at :datetime</text>
<text text-anchor="start" x="653.212" y="-1222.8" font-family="Times,serif" font-size="14.00">current_login_at :datetime</text>
<text text-anchor="start" x="653.212" y="-1206" font-family="Times,serif" font-size="14.00">last_login_at :datetime</text>
<text text-anchor="start" x="653.212" y="-1189.2" font-family="Times,serif" font-size="14.00">current_login_ip :string</text>
<text text-anchor="start" x="653.212" y="-1172.4" font-family="Times,serif" font-size="14.00">last_login_ip :string</text>
<text text-anchor="start" x="653.212" y="-1155.6" font-family="Times,serif" font-size="14.00">first_name :string</text>
<text text-anchor="start" x="653.212" y="-1138.8" font-family="Times,serif" font-size="14.00">last_name :string</text>
<text text-anchor="start" x="653.212" y="-1122" font-family="Times,serif" font-size="14.00">roles :string</text>
<text text-anchor="start" x="653.212" y="-1105.2" font-family="Times,serif" font-size="14.00">confirmed_at :datetime</text>
<text text-anchor="start" x="653.212" y="-1088.4" font-family="Times,serif" font-size="14.00">created_at :datetime</text>
<text text-anchor="start" x="653.212" y="-1071.6" font-family="Times,serif" font-size="14.00">updated_at :datetime</text>
</g>
<!-- User&#45;&gt;MediaItem -->
<g id="edge18" class="edge"><title>User&#45;&gt;MediaItem</title>
<path fill="none" stroke="black" d="M689.243,-1056.55C687.546,-1049.58 685.847,-1042.6 684.158,-1035.66"/>
<ellipse fill="none" stroke="black" cx="690.227" cy="-1060.6" rx="4.00001" ry="4.00001"/>
<polygon fill="black" stroke="black" points="684.057,-1035.25 686.064,-1024.46 682.874,-1030.39 681.692,-1025.53 681.692,-1025.53 681.692,-1025.53 682.874,-1030.39 677.319,-1026.59 684.057,-1035.25 684.057,-1035.25"/>
</g>
<!-- User&#45;&gt;Transcript -->
<g id="edge20" class="edge"><title>User&#45;&gt;Transcript</title>
<path fill="none" stroke="black" d="M746.303,-1056.42C746.973,-1046.13 747.55,-1035.93 748,-1026 753.76,-899.019 753.95,-866.972 748,-740 747.567,-730.757 747.01,-721.258 746.363,-711.682"/>
<ellipse fill="none" stroke="black" cx="746.016" cy="-1060.69" rx="4" ry="4"/>
<polygon fill="black" stroke="black" points="746.362,-711.657 750.148,-701.366 746.01,-706.67 745.659,-701.682 745.659,-701.682 745.659,-701.682 746.01,-706.67 741.17,-701.998 746.362,-711.657 746.362,-711.657"/>
</g>
<!-- UserSession -->
<g id="node13" class="node"><title>UserSession</title>
<polygon fill="none" stroke="black" points="898.39,-858.2 898.39,-907.8 983.61,-907.8 983.61,-858.2 898.39,-858.2"/>
<text text-anchor="middle" x="941" y="-889.8" font-family="Times,serif" font-size="14.00">UserSession</text>
<polyline fill="none" stroke="black" points="898.39,-883 983.61,-883 "/>
<text text-anchor="middle" x="941" y="-865" font-family="Times,serif" font-size="14.00"> </text>
</g>
<g id="node14" class="node"><title></title>
<ellipse fill="none" stroke="black" cx="401" cy="-1224" rx="27" ry="18"/>
</g>
<!-- &#45;&gt;Country -->
<g id="edge2" class="edge"><title>&#45;&gt;Country</title>
<path fill="none" stroke="black" d="M399.64,-1205.83C396.766,-1175.18 388.293,-1111.88 365,-1064 355.465,-1044.4 344.036,-1045.35 334,-1026 313.939,-987.327 302.932,-937.394 297.768,-907.922"/>
</g>
<!-- &#45;&gt;CountryLanguage -->
<g id="edge4" class="edge"><title>&#45;&gt;CountryLanguage</title>
<path fill="none" stroke="black" d="M401,-1205.67C401,-1148.53 401,-973.623 401,-908.118"/>
</g>
<!-- &#45;&gt;License -->
<g id="edge6" class="edge"><title>&#45;&gt;License</title>
<path fill="none" stroke="black" d="M407.365,-1206.37C419.711,-1171.92 447.499,-1093.16 468,-1026 480.547,-984.898 493.32,-936.567 500.686,-907.93"/>
</g>
<!-- Authlogic::Session::Base -->
<g id="node25" class="node"><title>Authlogic::Session::Base</title>
<ellipse fill="none" stroke="black" cx="941" cy="-1224" rx="108.176" ry="18"/>
<text text-anchor="middle" x="941" y="-1218.4" font-family="Times,serif" font-size="14.00">Authlogic::Session::Base</text>
</g>
<!-- Authlogic::Session::Base&#45;&gt;UserSession -->
<g id="edge22" class="edge"><title>Authlogic::Session::Base&#45;&gt;UserSession</title>
<path fill="none" stroke="black" d="M941,-1205.67C941,-1148.53 941,-973.623 941,-908.118"/>
</g>
</g>
</svg>
