<?xml version="1.0" encoding="UTF-8" standalone="no"?>
<!DOCTYPE svg PUBLIC "-//W3C//DTD SVG 1.0//EN"
 "http://www.w3.org/TR/2001/REC-SVG-20010904/DTD/svg10.dtd" [
 <!ATTLIST svg xmlns:xlink CDATA #FIXED "http://www.w3.org/1999/xlink">
]>
<!-- Generated by Graphviz version 2.20.2 (Tue Mar &#160;2 19:03:41 UTC 2010)
     For user: (johnf) John Ferlito,,, -->
<!-- Title: models_diagram Pages: 1 -->
<svg width="965pt" height="520pt"
 viewBox="0.00 0.00 965.00 520.00" xmlns="http://www.w3.org/2000/svg" xmlns:xlink="http://www.w3.org/1999/xlink">
<g id="graph0" class="graph" transform="scale(1 1) rotate(0) translate(4 516)">
<title>models_diagram</title>
<polygon style="fill:white;stroke:white;" points="-4,4 -4,-516 961,-516 961,4 -4,4"/>
<!-- _diagram_info -->
<g id="node1" class="node"><title>_diagram_info</title>
<text text-anchor="start" x="7.5" y="-495.8" style="font-family:Times New Roman;font-size:13.00;">Models diagram</text>
<text text-anchor="start" x="7.5" y="-478.8" style="font-family:Times New Roman;font-size:13.00;">Date: Feb 10 2011 &#45; 12:19</text>
<text text-anchor="start" x="7.5" y="-461.8" style="font-family:Times New Roman;font-size:13.00;">Migration version: 20110206052402</text>
<text text-anchor="start" x="7.5" y="-444.8" style="font-family:Times New Roman;font-size:13.00;">Generated by RailRoady 1.0.1</text>
<text text-anchor="start" x="7.5" y="-427.8" style="font-family:Times New Roman;font-size:13.00;">http://railroady.prestonlee.com</text>
</g>
<!-- Country -->
<g id="node2" class="node"><title>Country</title>
<polygon style="fill:none;stroke:black;" points="205,-380 133,-380 133,-344 205,-344 205,-380"/>
<text text-anchor="middle" x="169" y="-357.9" style="font-family:Times New Roman;font-size:14.00;">Country</text>
</g>
<!-- TranscriptMorpheme -->
<g id="node3" class="node"><title>TranscriptMorpheme</title>
<ellipse style="fill:none;stroke:black;" cx="658" cy="-18" rx="107.902" ry="18"/>
<text text-anchor="middle" x="658" y="-13.9" style="font-family:Times New Roman;font-size:14.00;">TranscriptMorpheme</text>
</g>
<!-- Transcript -->
<g id="node4" class="node"><title>Transcript</title>
<ellipse style="fill:none;stroke:black;" cx="503" cy="-288" rx="57.8712" ry="18"/>
<text text-anchor="middle" x="503" y="-283.9" style="font-family:Times New Roman;font-size:14.00;">Transcript</text>
</g>
<!-- Participant -->
<g id="node11" class="node"><title>Participant</title>
<ellipse style="fill:none;stroke:black;" cx="487" cy="-198" rx="62.0391" ry="18"/>
<text text-anchor="middle" x="487" y="-193.9" style="font-family:Times New Roman;font-size:14.00;">Participant</text>
</g>
<!-- Transcript&#45;&gt;Participant -->
<g id="edge6" class="edge"><title>Transcript&#45;&gt;Participant</title>
<path style="fill:none;stroke:black;" d="M499,-262C497,-250 494,-238 492,-226"/>
<ellipse style="fill:none;stroke:black;" cx="499.504" cy="-266.031" rx="4.00001" ry="4.00001"/>
<polygon style="fill:black;stroke:black;" points="491.961,-225.806 494.413,-215.117 490.981,-220.903 490,-216 490,-216 490,-216 490.981,-220.903 485.587,-216.883 491.961,-225.806 491.961,-225.806"/>
</g>
<!-- TranscriptPhrase -->
<g id="node12" class="node"><title>TranscriptPhrase</title>
<ellipse style="fill:none;stroke:black;" cx="658" cy="-198" rx="91.0296" ry="18"/>
<text text-anchor="middle" x="658" y="-193.9" style="font-family:Times New Roman;font-size:14.00;">TranscriptPhrase</text>
</g>
<!-- Transcript&#45;&gt;TranscriptPhrase -->
<g id="edge4" class="edge"><title>Transcript&#45;&gt;TranscriptPhrase</title>
<path style="fill:none;stroke:black;" d="M537,-268C562,-254 594,-235 619,-220"/>
<ellipse style="fill:none;stroke:black;" cx="533.473" cy="-270.015" rx="4.00002" ry="4.00002"/>
<polygon style="fill:black;stroke:black;" points="619.258,-219.856 630.185,-218.934 623.629,-217.428 628,-215 628,-215 628,-215 623.629,-217.428 625.815,-211.066 619.258,-219.856 619.258,-219.856"/>
<text text-anchor="middle" x="623" y="-238.9" style="font-family:Times New Roman;font-size:14.00;">phrases</text>
</g>
<!-- CountryLanguage -->
<g id="node5" class="node"><title>CountryLanguage</title>
<polygon style="fill:none;stroke:black;" points="363,-380 223,-380 223,-344 363,-344 363,-380"/>
<text text-anchor="middle" x="293" y="-357.9" style="font-family:Times New Roman;font-size:14.00;">CountryLanguage</text>
</g>
<!-- UserSession -->
<g id="node6" class="node"><title>UserSession</title>
<polygon style="fill:none;stroke:black;" points="741,-380 643,-380 643,-344 741,-344 741,-380"/>
<text text-anchor="middle" x="692" y="-357.9" style="font-family:Times New Roman;font-size:14.00;">UserSession</text>
</g>
<!-- TranscriptWord -->
<g id="node7" class="node"><title>TranscriptWord</title>
<ellipse style="fill:none;stroke:black;" cx="658" cy="-108" rx="82.8866" ry="18"/>
<text text-anchor="middle" x="658" y="-103.9" style="font-family:Times New Roman;font-size:14.00;">TranscriptWord</text>
</g>
<!-- TranscriptWord&#45;&gt;TranscriptMorpheme -->
<g id="edge12" class="edge"><title>TranscriptWord&#45;&gt;TranscriptMorpheme</title>
<path style="fill:none;stroke:black;" d="M658,-82C658,-71 658,-58 658,-46"/>
<ellipse style="fill:none;stroke:black;" cx="658" cy="-86" rx="4" ry="4"/>
<polygon style="fill:black;stroke:black;" points="658,-46 662.5,-36 658,-41 658,-36 658,-36 658,-36 658,-41 653.5,-36 658,-46 658,-46"/>
<text text-anchor="middle" x="698" y="-58.9" style="font-family:Times New Roman;font-size:14.00;">morphemes</text>
</g>
<!-- MediaItem -->
<g id="node8" class="node"><title>MediaItem</title>
<ellipse style="fill:none;stroke:black;" cx="564" cy="-362" rx="61.1496" ry="18"/>
<text text-anchor="middle" x="564" y="-357.9" style="font-family:Times New Roman;font-size:14.00;">MediaItem</text>
</g>
<!-- MediaItem&#45;&gt;Transcript -->
<g id="edge14" class="edge"><title>MediaItem&#45;&gt;Transcript</title>
<path style="fill:none;stroke:black;" d="M545,-338C538,-331 531,-322 524,-314"/>
<ellipse style="fill:none;stroke:black;" cx="547.439" cy="-340.927" rx="4.00002" ry="4.00002"/>
<polygon style="fill:black;stroke:black;" points="524,-314 521.6,-303.3 521,-310 518,-306 518,-306 518,-306 521,-310 514.4,-308.7 524,-314 524,-314"/>
</g>
<!-- User -->
<g id="node9" class="node"><title>User</title>
<ellipse style="fill:none;stroke:black;" cx="494" cy="-465" rx="32.8565" ry="18"/>
<text text-anchor="middle" x="494" y="-460.9" style="font-family:Times New Roman;font-size:14.00;">User</text>
</g>
<!-- User&#45;&gt;Transcript -->
<g id="edge18" class="edge"><title>User&#45;&gt;Transcript</title>
<path style="fill:none;stroke:black;" d="M493,-439C492,-414 491,-376 494,-344 495,-335 496,-325 498,-316"/>
<ellipse style="fill:none;stroke:black;" cx="493" cy="-443" rx="4" ry="4"/>
<polygon style="fill:black;stroke:black;" points="498.039,-315.806 504.413,-306.883 499.019,-310.903 500,-306 500,-306 500,-306 499.019,-310.903 495.587,-305.117 498.039,-315.806 498.039,-315.806"/>
</g>
<!-- User&#45;&gt;MediaItem -->
<g id="edge16" class="edge"><title>User&#45;&gt;MediaItem</title>
<path style="fill:none;stroke:black;" d="M511,-441C521,-425 536,-405 546,-389"/>
<ellipse style="fill:none;stroke:black;" cx="508.325" cy="-444.745" rx="4.00002" ry="4.00002"/>
<polygon style="fill:black;stroke:black;" points="546.453,-388.321 555.744,-382.496 549.226,-384.16 552,-380 552,-380 552,-380 549.226,-384.16 548.256,-377.504 546.453,-388.321 546.453,-388.321"/>
</g>
<!-- License -->
<g id="node10" class="node"><title>License</title>
<polygon style="fill:none;stroke:black;" points="447,-380 381,-380 381,-344 447,-344 447,-380"/>
<text text-anchor="middle" x="414" y="-357.9" style="font-family:Times New Roman;font-size:14.00;">License</text>
</g>
<!-- TranscriptPhrase&#45;&gt;TranscriptWord -->
<g id="edge22" class="edge"><title>TranscriptPhrase&#45;&gt;TranscriptWord</title>
<path style="fill:none;stroke:black;" d="M658,-172C658,-161 658,-148 658,-136"/>
<ellipse style="fill:none;stroke:black;" cx="658" cy="-176" rx="4" ry="4"/>
<polygon style="fill:black;stroke:black;" points="658,-136 662.5,-126 658,-131 658,-126 658,-126 658,-126 658,-131 653.5,-126 658,-136 658,-136"/>
<text text-anchor="middle" x="679" y="-148.9" style="font-family:Times New Roman;font-size:14.00;">words</text>
</g>
<!-- AppConfig -->
<g id="node13" class="node"><title>AppConfig</title>
<ellipse style="fill:none;stroke:black;" cx="897" cy="-465" rx="59.7599" ry="18"/>
<text text-anchor="middle" x="897" y="-460.9" style="font-family:Times New Roman;font-size:14.00;">AppConfig</text>
</g>
<g id="node14" class="node"><title></title>
<ellipse style="fill:none;stroke:black;" cx="293" cy="-465" rx="27" ry="18"/>
</g>
<!-- &#45;&gt;Country -->
<g id="edge2" class="edge"><title>&#45;&gt;Country</title>
<path style="fill:none;stroke:black;" d="M277,-440C271,-432 264,-424 257,-418 241,-403 221,-390 204,-380"/>
<polygon style="fill:none;stroke:black;" points="274.2,-442.1 283,-448 279.8,-437.9 274.2,-442.1"/>
</g>
<!-- &#45;&gt;CountryLanguage -->
<g id="edge8" class="edge"><title>&#45;&gt;CountryLanguage</title>
<path style="fill:none;stroke:black;" d="M293,-437C293,-419 293,-396 293,-380"/>
<polygon style="fill:none;stroke:black;" points="289.5,-437 293,-447 296.5,-437 289.5,-437"/>
</g>
<!-- &#45;&gt;License -->
<g id="edge20" class="edge"><title>&#45;&gt;License</title>
<path style="fill:none;stroke:black;" d="M317,-444C339,-425 372,-398 392,-380"/>
<polygon style="fill:none;stroke:black;" points="314.596,-441.454 310,-451 319.546,-446.404 314.596,-441.454"/>
</g>
<!-- Authlogic::Session::Base -->
<g id="node19" class="node"><title>Authlogic::Session::Base</title>
<ellipse style="fill:none;stroke:black;" cx="692" cy="-465" rx="127.163" ry="18"/>
<text text-anchor="middle" x="692" y="-460.9" style="font-family:Times New Roman;font-size:14.00;">Authlogic::Session::Base</text>
</g>
<!-- Authlogic::Session::Base&#45;&gt;UserSession -->
<g id="edge10" class="edge"><title>Authlogic::Session::Base&#45;&gt;UserSession</title>
<path style="fill:none;stroke:black;" d="M692,-437C692,-419 692,-396 692,-380"/>
<polygon style="fill:none;stroke:black;" points="688.5,-437 692,-447 695.5,-437 688.5,-437"/>
</g>
</g>
</svg>
