<?xml version="1.0" encoding="UTF-8" standalone="no"?>
<!DOCTYPE svg PUBLIC "-//W3C//DTD SVG 1.1//EN"
 "http://www.w3.org/Graphics/SVG/1.1/DTD/svg11.dtd">
<!-- Generated by graphviz version 2.26.3 (20100126.1600)
 -->
<!-- Title: models_diagram Pages: 1 -->
<svg width="909pt" height="512pt"
 viewBox="0.00 0.00 909.00 512.00" xmlns="http://www.w3.org/2000/svg" xmlns:xlink="http://www.w3.org/1999/xlink">
<g id="graph1" class="graph" transform="scale(1 1) rotate(0) translate(4 508)">
<title>models_diagram</title>
<polygon fill="white" stroke="white" points="-4,5 -4,-508 906,-508 906,5 -4,5"/>
<!-- _diagram_info -->
<g id="node1" class="node"><title>_diagram_info</title>
<text text-anchor="start" x="7.78833" y="-487" font-family="Times,serif" font-size="13.00">Models diagram</text>
<text text-anchor="start" x="7.78833" y="-471.4" font-family="Times,serif" font-size="13.00">Date: Apr 03 2011 &#45; 14:40</text>
<text text-anchor="start" x="7.78833" y="-455.8" font-family="Times,serif" font-size="13.00">Migration version: 20110211064726</text>
<text text-anchor="start" x="7.78833" y="-440.2" font-family="Times,serif" font-size="13.00">Generated by RailRoady 1.0.2</text>
<text text-anchor="start" x="7.78833" y="-424.6" font-family="Times,serif" font-size="13.00">http://railroady.prestonlee.com</text>
</g>
<!-- AppConfig -->
<g id="node2" class="node"><title>AppConfig</title>
<ellipse fill="none" stroke="black" cx="278" cy="-461" rx="53.9646" ry="18"/>
<text text-anchor="middle" x="278" y="-455.4" font-family="Times,serif" font-size="14.00">AppConfig</text>
</g>
<!-- Country -->
<g id="node3" class="node"><title>Country</title>
<polygon fill="none" stroke="black" points="300.945,-380 239.055,-380 239.055,-344 300.945,-344 300.945,-380"/>
<text text-anchor="middle" x="270" y="-356.4" font-family="Times,serif" font-size="14.00">Country</text>
</g>
<!-- CountryLanguage -->
<g id="node4" class="node"><title>CountryLanguage</title>
<polygon fill="none" stroke="black" points="435.041,-380 318.959,-380 318.959,-344 435.041,-344 435.041,-380"/>
<text text-anchor="middle" x="377" y="-356.4" font-family="Times,serif" font-size="14.00">CountryLanguage</text>
</g>
<!-- License -->
<g id="node5" class="node"><title>License</title>
<polygon fill="none" stroke="black" points="512.766,-380 453.234,-380 453.234,-344 512.766,-344 512.766,-380"/>
<text text-anchor="middle" x="483" y="-356.4" font-family="Times,serif" font-size="14.00">License</text>
</g>
<!-- MediaItem -->
<g id="node6" class="node"><title>MediaItem</title>
<ellipse fill="none" stroke="black" cx="584" cy="-362" rx="52.9044" ry="18"/>
<text text-anchor="middle" x="584" y="-356.4" font-family="Times,serif" font-size="14.00">MediaItem</text>
</g>
<!-- Transcript -->
<g id="node8" class="node"><title>Transcript</title>
<ellipse fill="none" stroke="black" cx="638" cy="-288" rx="49.8869" ry="18"/>
<text text-anchor="middle" x="638" y="-282.4" font-family="Times,serif" font-size="14.00">Transcript</text>
</g>
<!-- MediaItem&#45;&gt;Transcript -->
<g id="edge8" class="edge"><title>MediaItem&#45;&gt;Transcript</title>
<path fill="none" stroke="black" d="M601.667,-337.79C607.33,-330.029 613.619,-321.412 619.35,-313.558"/>
<ellipse fill="none" stroke="black" cx="599.155" cy="-341.232" rx="4.00002" ry="4.00002"/>
<polygon fill="black" stroke="black" points="619.4,-313.489 628.93,-308.064 622.347,-309.45 625.295,-305.411 625.295,-305.411 625.295,-305.411 622.347,-309.45 621.66,-302.758 619.4,-313.489 619.4,-313.489"/>
</g>
<!-- Participant -->
<g id="node7" class="node"><title>Participant</title>
<ellipse fill="none" stroke="black" cx="622" cy="-198" rx="52.8707" ry="18"/>
<text text-anchor="middle" x="622" y="-192.4" font-family="Times,serif" font-size="14.00">Participant</text>
</g>
<!-- Transcript&#45;&gt;Participant -->
<g id="edge12" class="edge"><title>Transcript&#45;&gt;Participant</title>
<path fill="none" stroke="black" d="M633.309,-261.615C631.322,-250.434 629.003,-237.392 626.984,-226.037"/>
<ellipse fill="none" stroke="black" cx="634.062" cy="-265.849" rx="4.00001" ry="4.00001"/>
<polygon fill="black" stroke="black" points="626.983,-226.031 629.664,-215.398 626.108,-221.109 625.233,-216.186 625.233,-216.186 625.233,-216.186 626.108,-221.109 620.802,-216.973 626.983,-226.031 626.983,-226.031"/>
</g>
<!-- TranscriptPhrase -->
<g id="node10" class="node"><title>TranscriptPhrase</title>
<ellipse fill="none" stroke="black" cx="769" cy="-198" rx="76.1313" ry="18"/>
<text text-anchor="middle" x="769" y="-192.4" font-family="Times,serif" font-size="14.00">TranscriptPhrase</text>
</g>
<!-- Transcript&#45;&gt;TranscriptPhrase -->
<g id="edge10" class="edge"><title>Transcript&#45;&gt;TranscriptPhrase</title>
<path fill="none" stroke="black" d="M668.265,-267.207C688.363,-253.399 714.764,-235.262 735.495,-221.018"/>
<ellipse fill="none" stroke="black" cx="664.717" cy="-269.645" rx="4.00002" ry="4.00002"/>
<polygon fill="black" stroke="black" points="735.756,-220.839 746.547,-218.886 739.877,-218.008 743.998,-215.177 743.998,-215.177 743.998,-215.177 739.877,-218.008 741.45,-211.468 735.756,-220.839 735.756,-220.839"/>
<text text-anchor="middle" x="736.993" y="-237.4" font-family="Times,serif" font-size="14.00">phrases</text>
</g>
<!-- TranscriptMorpheme -->
<g id="node9" class="node"><title>TranscriptMorpheme</title>
<ellipse fill="none" stroke="black" cx="769" cy="-18" rx="92.7575" ry="18"/>
<text text-anchor="middle" x="769" y="-12.4" font-family="Times,serif" font-size="14.00">TranscriptMorpheme</text>
</g>
<!-- TranscriptWord -->
<g id="node11" class="node"><title>TranscriptWord</title>
<ellipse fill="none" stroke="black" cx="769" cy="-108" rx="71.1039" ry="18"/>
<text text-anchor="middle" x="769" y="-102.4" font-family="Times,serif" font-size="14.00">TranscriptWord</text>
</g>
<!-- TranscriptPhrase&#45;&gt;TranscriptWord -->
<g id="edge14" class="edge"><title>TranscriptPhrase&#45;&gt;TranscriptWord</title>
<path fill="none" stroke="black" d="M769,-171.615C769,-160.548 769,-147.658 769,-136.385"/>
<ellipse fill="none" stroke="black" cx="769" cy="-175.787" rx="4" ry="4"/>
<polygon fill="black" stroke="black" points="769,-136.186 773.5,-126.186 769,-131.186 769,-126.186 769,-126.186 769,-126.186 769,-131.186 764.5,-126.186 769,-136.186 769,-136.186"/>
<text text-anchor="middle" x="786.11" y="-147.4" font-family="Times,serif" font-size="14.00">words</text>
</g>
<!-- TranscriptWord&#45;&gt;TranscriptMorpheme -->
<g id="edge16" class="edge"><title>TranscriptWord&#45;&gt;TranscriptMorpheme</title>
<path fill="none" stroke="black" d="M769,-81.6153C769,-70.5483 769,-57.6577 769,-46.3852"/>
<ellipse fill="none" stroke="black" cx="769" cy="-85.7872" rx="4" ry="4"/>
<polygon fill="black" stroke="black" points="769,-46.1858 773.5,-36.1857 769,-41.1858 769,-36.1858 769,-36.1858 769,-36.1858 769,-41.1858 764.5,-36.1858 769,-46.1858 769,-46.1858"/>
<text text-anchor="middle" x="801.659" y="-57.4" font-family="Times,serif" font-size="14.00">morphemes</text>
</g>
<!-- User -->
<g id="node12" class="node"><title>User</title>
<ellipse fill="none" stroke="black" cx="638" cy="-461" rx="28.7745" ry="18"/>
<text text-anchor="middle" x="638" y="-455.4" font-family="Times,serif" font-size="14.00">User</text>
</g>
<!-- User&#45;&gt;MediaItem -->
<g id="edge18" class="edge"><title>User&#45;&gt;MediaItem</title>
<path fill="none" stroke="black" d="M624.687,-436.594C616.801,-422.135 606.796,-403.792 598.681,-388.914"/>
<ellipse fill="none" stroke="black" cx="626.678" cy="-440.244" rx="4.00002" ry="4.00002"/>
<polygon fill="black" stroke="black" points="598.45,-388.492 597.612,-377.559 596.056,-384.103 593.662,-379.713 593.662,-379.713 593.662,-379.713 596.056,-384.103 589.711,-381.868 598.45,-388.492 598.45,-388.492"/>
</g>
<!-- User&#45;&gt;Transcript -->
<g id="edge20" class="edge"><title>User&#45;&gt;Transcript</title>
<path fill="none" stroke="black" d="M641.904,-434.598C644.911,-410.883 648.211,-375.11 646,-344 645.349,-334.847 644.108,-324.915 642.794,-315.992"/>
<ellipse fill="none" stroke="black" cx="641.347" cy="-438.793" rx="4.00001" ry="4.00001"/>
<polygon fill="black" stroke="black" points="642.79,-315.969 645.695,-305.395 642.019,-311.029 641.249,-306.089 641.249,-306.089 641.249,-306.089 642.019,-311.029 636.802,-306.782 642.79,-315.969 642.79,-315.969"/>
</g>
<!-- UserSession -->
<g id="node13" class="node"><title>UserSession</title>
<polygon fill="none" stroke="black" points="835.109,-380 750.891,-380 750.891,-344 835.109,-344 835.109,-380"/>
<text text-anchor="middle" x="793" y="-356.4" font-family="Times,serif" font-size="14.00">UserSession</text>
</g>
<g id="node14" class="node"><title></title>
<ellipse fill="none" stroke="black" cx="377" cy="-461" rx="27" ry="18"/>
</g>
<!-- &#45;&gt;Country -->
<g id="edge2" class="edge"><title>&#45;&gt;Country</title>
<path fill="none" stroke="black" d="M364.739,-444.792C358.096,-436.429 349.521,-426.276 341,-418 326.923,-404.328 309.665,-390.656 295.689,-380.244"/>
</g>
<!-- &#45;&gt;CountryLanguage -->
<g id="edge4" class="edge"><title>&#45;&gt;CountryLanguage</title>
<path fill="none" stroke="black" d="M377,-442.842C377,-424.979 377,-397.866 377,-380.043"/>
</g>
<!-- &#45;&gt;License -->
<g id="edge6" class="edge"><title>&#45;&gt;License</title>
<path fill="none" stroke="black" d="M393.099,-445.964C411.98,-428.33 443.264,-399.112 463.502,-380.21"/>
</g>
<!-- Authlogic::Session::Base -->
<g id="node25" class="node"><title>Authlogic::Session::Base</title>
<ellipse fill="none" stroke="black" cx="793" cy="-461" rx="108.176" ry="18"/>
<text text-anchor="middle" x="793" y="-455.4" font-family="Times,serif" font-size="14.00">Authlogic::Session::Base</text>
</g>
<!-- Authlogic::Session::Base&#45;&gt;UserSession -->
<g id="edge22" class="edge"><title>Authlogic::Session::Base&#45;&gt;UserSession</title>
<path fill="none" stroke="black" d="M793,-442.842C793,-424.979 793,-397.866 793,-380.043"/>
</g>
</g>
</svg>
